<svg width="429" height="217" viewBox="0 0 429 217" fill="none" xmlns="http://www.w3.org/2000/svg">
<g clip-path="url(#clip0_246_61243)">
<g filter="url(#filter0_d_246_61243)">
<rect x="115" y="-25.5" width="97" height="97" rx="16" fill="#FBFEFB"/>
<rect x="115.5" y="-25" width="96" height="96" rx="15.5" stroke="#EAF4EC" stroke-opacity="0.7"/>
<path d="M178.25 19.25V47.75C178.25 48.5456 177.934 49.3087 177.371 49.8713C176.809 50.4339 176.046 50.75 175.25 50.75H152.75C151.954 50.75 151.191 50.4339 150.629 49.8713C150.066 49.3087 149.75 48.5456 149.75 47.75V19.25H178.25Z" fill="#A97C50"/>
<path d="M165.5 47C170.471 47 174.5 42.9706 174.5 38C174.5 33.0294 170.471 29 165.5 29C160.529 29 156.5 33.0294 156.5 38C156.5 42.9706 160.529 47 165.5 47Z" fill="#996742"/>
<path d="M164 45.5C168.971 45.5 173 41.4706 173 36.5C173 31.5294 168.971 27.5 164 27.5C159.029 27.5 155 31.5294 155 36.5C155 41.4706 159.029 45.5 164 45.5Z" fill="#00CCB3"/>
<path d="M169.925 34.325L163.557 40.6925C163.419 40.8316 163.254 40.9419 163.072 41.0172C162.891 41.0924 162.696 41.1312 162.5 41.1312C162.303 41.1312 162.109 41.0924 161.927 41.0172C161.746 40.9419 161.581 40.8316 161.442 40.6925L158.255 37.505L160.377 35.3825L162.5 37.505L167.802 32.2025L169.925 34.325Z" fill="#FF6243"/>
<path d="M157.25 19.25H160.25V23.75H157.25V19.25ZM170.75 19.25H173.75V23.75H170.75V19.25Z" fill="#996742"/>
<path d="M172.25 15.5V22.25H169.25V15.5C169.25 14.1076 168.697 12.7723 167.712 11.7877C166.728 10.8031 165.392 10.25 164 10.25C162.608 10.25 161.272 10.8031 160.288 11.7877C159.303 12.7723 158.75 14.1076 158.75 15.5V22.25H155.75V15.5C155.75 13.312 156.619 11.2135 158.166 9.66637C159.714 8.11919 161.812 7.25 164 7.25C166.188 7.25 168.286 8.11919 169.834 9.66637C171.381 11.2135 172.25 13.312 172.25 15.5Z" fill="#8B5E3C"/>
</g>
<g filter="url(#filter1_d_246_61243)">
<rect x="115" y="76.5" width="97" height="97" rx="16" fill="#FBFEFB"/>
<rect x="115.5" y="77" width="96" height="96" rx="15.5" stroke="#EAF4EC" stroke-opacity="0.7"/>
<path fill-rule="evenodd" clip-rule="evenodd" d="M181.424 116.139H145.516V143.356C145.516 144.372 146.339 145.195 147.354 145.195C153.52 145.195 173.42 145.195 179.585 145.195C180.601 145.195 181.424 144.372 181.424 143.356C181.424 136.97 181.424 116.139 181.424 116.139Z" fill="#F2B474"/>
<path d="M171.833 133.913C172.306 134.733 172.306 135.742 171.833 136.562C171.36 137.381 170.485 137.886 169.539 137.886H161.837M157.764 137.886C156.818 137.886 155.943 137.381 155.47 136.562C154.997 135.742 154.997 134.733 155.47 133.913C156.434 132.244 159.003 127.793 159.003 127.793M161.358 123.715C161.831 122.896 162.705 122.391 163.652 122.391C164.598 122.391 165.472 122.896 165.945 123.715C167.176 125.847 169.711 130.237 169.711 130.237" stroke="#60828F" stroke-width="2.24764" stroke-miterlimit="1.5" stroke-linecap="round" stroke-linejoin="round"/>
<path d="M154.753 129.459L159.047 127.749L159.713 132.322M165.437 128.562L169.73 130.272L170.396 125.698M165.465 135.022L161.837 137.886L165.465 140.749" stroke="#60828F" stroke-width="2.24764" stroke-miterlimit="1.5" stroke-linecap="round" stroke-linejoin="round"/>
<path fill-rule="evenodd" clip-rule="evenodd" d="M175.519 104.745H151.421L145.516 116.139H181.424L175.519 104.745Z" fill="#FED29D"/>
<path fill-rule="evenodd" clip-rule="evenodd" d="M177.457 108.476H173.326C173.033 108.476 172.757 108.616 172.584 108.853C172.411 109.09 172.361 109.395 172.45 109.675C172.597 110.134 172.764 110.66 172.913 111.127C173.156 111.89 173.864 112.408 174.665 112.408C176.481 112.408 179.495 112.408 179.495 112.408L177.457 108.476ZM149.499 108.476L147.461 112.408H152.291C153.091 112.408 153.8 111.89 154.043 111.127C154.191 110.66 154.359 110.134 154.505 109.675C154.594 109.395 154.545 109.09 154.371 108.853C154.198 108.616 153.923 108.476 153.629 108.476C152.037 108.476 149.499 108.476 149.499 108.476Z" fill="#FBF0CF"/>
</g>
<g filter="url(#filter2_d_246_61243)">
<rect x="217" y="-25.5" width="97" height="97" rx="16" fill="#FBFEFB"/>
<rect x="217.5" y="-25" width="96" height="96" rx="15.5" stroke="#EAF4EC" stroke-opacity="0.7"/>
<path d="M283.25 50.5L277.25 13V5.5L275 7.75L272.75 5.5L270.5 7.75L268.25 5.5L266 7.75L263.75 5.5L261.5 7.75L259.25 5.5L257 7.75L254.75 5.5V13L248.75 50.5H283.25Z" fill="#E7B541"/>
<path d="M257 7.75C257 9.3445 257 10.75 257 10.75C257 10.75 253.933 29.9215 252.184 40.849C251.563 44.7347 254.565 48.25 258.5 48.25H282.89C281.596 40.1628 277.25 13 277.25 13V5.5L275 7.75L272.75 5.5L270.5 7.75L268.25 5.5L266 7.75L263.75 5.5L261.5 7.75L259.25 5.5L257 7.75Z" fill="#F9CB6E"/>
<path d="M271.25 50.5L277.25 13L283.25 50.5H271.25Z" fill="#C99735"/>
<path d="M267.5 46.75L269.75 33.25H255.5L253.25 46.75H267.5Z" fill="#C9C9C9"/>
<path d="M277.25 5.5L275 7.75L272.75 5.5L270.5 7.75L268.25 5.5L266 7.75L263.75 5.5L261.5 7.75L259.25 5.5L257 7.75L254.75 5.5V13H277.25V5.5Z" fill="#C99735"/>
<path d="M278 44.1895V17.6875L277.25 13C277.25 13 276.957 14.8337 276.5 17.6882V44.1895L271.452 49.2378C271.323 50.0455 271.25 50.5 271.25 50.5H272.311L277.25 45.5605L282.189 50.5H283.25L283.048 49.2378L278 44.1895Z" fill="#AD7D28"/>
<path d="M269.75 33.25H257.5L256.24 40.8115C255.853 43.135 257.644 45.25 260 45.25H267.75L269.75 33.25Z" fill="#DDDDDD"/>
<path d="M277.25 5.5L275 7.75L272.75 5.5L270.5 7.75L268.25 5.5L266 7.75L263.75 5.5L261.5 7.75L259.25 5.5L257 7.75C257 9.3445 257 10.75 257 10.75C257 10.75 256.865 11.5885 256.64 13H277.25V5.5Z" fill="#E7B541"/>
</g>
<g filter="url(#filter3_d_246_61243)">
<mask id="path-26-outside-1_246_61243" maskUnits="userSpaceOnUse" x="318" y="-25.5" width="98" height="97" fill="black">
<rect fill="white" x="318" y="-25.5" width="98" height="97"/>
<path d="M319 -9.5C319 -18.3366 326.163 -25.5 335 -25.5H400C408.837 -25.5 416 -18.3366 416 -9.5V55.5C416 64.3366 408.837 71.5 400 71.5H335C326.163 71.5 319 64.3366 319 55.5V-9.5Z"/>
</mask>
<path d="M319 -9.5C319 -18.3366 326.163 -25.5 335 -25.5H400C408.837 -25.5 416 -18.3366 416 -9.5V55.5C416 64.3366 408.837 71.5 400 71.5H335C326.163 71.5 319 64.3366 319 55.5V-9.5Z" fill="#FBFEFB" shape-rendering="crispEdges"/>
<path d="M319 -25.5H416H319ZM416 71.5H319H416ZM335 71.5C325.611 71.5 318 63.8888 318 54.5V-8.5C318 -17.8888 325.611 -25.5 335 -25.5C326.716 -25.5 320 -18.3366 320 -9.5V55.5C320 64.3366 326.716 71.5 335 71.5ZM416 -25.5V71.5V-25.5Z" fill="#EAF4EC" fill-opacity="0.7" mask="url(#path-26-outside-1_246_61243)"/>
</g>
<g filter="url(#filter4_d_246_61243)">
<mask id="path-28-outside-2_246_61243" maskUnits="userSpaceOnUse" x="13" y="-25.5" width="98" height="97" fill="black">
<rect fill="white" x="13" y="-25.5" width="98" height="97"/>
<path d="M110 -9.5C110 -18.3366 102.837 -25.5 94 -25.5H29C20.1634 -25.5 13 -18.3366 13 -9.5V55.5C13 64.3366 20.1634 71.5 29 71.5H94C102.837 71.5 110 64.3366 110 55.5V-9.5Z"/>
</mask>
<path d="M110 -9.5C110 -18.3366 102.837 -25.5 94 -25.5H29C20.1634 -25.5 13 -18.3366 13 -9.5V55.5C13 64.3366 20.1634 71.5 29 71.5H94C102.837 71.5 110 64.3366 110 55.5V-9.5Z" fill="#FBFEFB" shape-rendering="crispEdges"/>
<path d="M110 -25.5H13H110ZM13 71.5H110H13ZM94 71.5C103.389 71.5 111 63.8888 111 54.5V-8.5C111 -17.8888 103.389 -25.5 94 -25.5C102.284 -25.5 109 -18.3366 109 -9.5V55.5C109 64.3366 102.284 71.5 94 71.5ZM13 -25.5V71.5V-25.5Z" fill="#EAF4EC" fill-opacity="0.7" mask="url(#path-28-outside-2_246_61243)"/>
</g>
<g filter="url(#filter5_d_246_61243)">
<mask id="path-30-outside-3_246_61243" maskUnits="userSpaceOnUse" x="115" y="177.5" width="97" height="98" fill="black">
<rect fill="white" x="115" y="177.5" width="97" height="98"/>
<path d="M196 178.5C204.837 178.5 212 185.663 212 194.5L212 259.5C212 268.337 204.837 275.5 196 275.5H131C122.163 275.5 115 268.337 115 259.5L115 194.5C115 185.663 122.163 178.5 131 178.5L196 178.5Z"/>
</mask>
<path d="M196 178.5C204.837 178.5 212 185.663 212 194.5L212 259.5C212 268.337 204.837 275.5 196 275.5H131C122.163 275.5 115 268.337 115 259.5L115 194.5C115 185.663 122.163 178.5 131 178.5L196 178.5Z" fill="#FBFEFB" shape-rendering="crispEdges"/>
<path d="M212 178.5L212 275.5L212 178.5ZM115 275.5L115 178.5L115 275.5ZM115 194.5C115 185.111 122.611 177.5 132 177.5L195 177.5C204.389 177.5 212 185.111 212 194.5C212 186.216 204.837 179.5 196 179.5L131 179.5C122.163 179.5 115 186.216 115 194.5ZM212 275.5H115H212Z" fill="#EAF4EC" fill-opacity="0.7" mask="url(#path-30-outside-3_246_61243)"/>
</g>
<g filter="url(#filter6_d_246_61243)">
<mask id="path-32-outside-4_246_61243" maskUnits="userSpaceOnUse" x="217" y="177.5" width="97" height="98" fill="black">
<rect fill="white" x="217" y="177.5" width="97" height="98"/>
<path d="M298 178.5C306.837 178.5 314 185.663 314 194.5V259.5C314 268.337 306.837 275.5 298 275.5H233C224.163 275.5 217 268.337 217 259.5V194.5C217 185.663 224.163 178.5 233 178.5L298 178.5Z"/>
</mask>
<path d="M298 178.5C306.837 178.5 314 185.663 314 194.5V259.5C314 268.337 306.837 275.5 298 275.5H233C224.163 275.5 217 268.337 217 259.5V194.5C217 185.663 224.163 178.5 233 178.5L298 178.5Z" fill="#FBFEFB" shape-rendering="crispEdges"/>
<path d="M314 178.5V275.5V178.5ZM217 275.5V178.5V275.5ZM217 194.5C217 185.111 224.611 177.5 234 177.5L297 177.5C306.389 177.5 314 185.111 314 194.5C314 186.216 306.837 179.5 298 179.5L233 179.5C224.163 179.5 217 186.216 217 194.5ZM314 275.5H217H314Z" fill="#EAF4EC" fill-opacity="0.7" mask="url(#path-32-outside-4_246_61243)"/>
</g>
<g filter="url(#filter7_d_246_61243)">
<rect x="217" y="76.5" width="97" height="97" rx="16" fill="#FBFEFB"/>
<rect x="217.5" y="77" width="96" height="96" rx="15.5" stroke="#EAF4EC" stroke-opacity="0.7"/>
<g clip-path="url(#clip1_246_61243)">
<path d="M264.781 109.062H266.966V125.666H264.781V109.062Z" fill="#12D87E"/>
<path d="M264.781 109.062H266.966V125.666H264.781V109.062Z" fill="url(#paint0_linear_246_61243)"/>
<path d="M265.709 109.063H263.825C260.694 109.053 258.163 106.513 258.172 103.391V101.506H260.056C263.188 101.506 265.719 104.047 265.709 107.178V109.063Z" fill="#19BF70"/>
<path d="M265.709 109.063H263.825C260.694 109.053 258.163 106.513 258.172 103.391V101.506L265.709 109.063Z" fill="url(#paint1_linear_246_61243)"/>
<path d="M266.966 119.094V115.55C266.966 112.419 269.497 109.887 272.628 109.887H276.172V113.431C276.172 116.562 273.641 119.094 270.51 119.094H266.966Z" fill="#19BF70"/>
<path d="M276.172 109.878V113.422C276.172 116.553 273.641 119.084 270.51 119.084H266.966L276.172 109.878Z" fill="url(#paint2_linear_246_61243)"/>
<path d="M266.01 109.062H267.894C271.025 109.072 273.566 106.541 273.566 103.409V101.525H271.682C268.55 101.516 266.01 104.047 266.01 107.178V109.062Z" fill="#19BF70"/>
<path d="M266.01 109.062H267.894C271.025 109.072 273.566 106.541 273.566 103.409V101.525L266.01 109.062Z" fill="url(#paint3_linear_246_61243)"/>
<path d="M264.828 120.697H260.806C257.675 120.697 255.144 118.166 255.144 115.034V111.012H259.165C262.297 111.012 264.828 113.544 264.828 116.675V120.697Z" fill="#19BF70"/>
<path d="M264.828 120.697H260.806C257.675 120.697 255.144 118.166 255.144 115.034V111.012L264.828 120.697Z" fill="url(#paint4_linear_246_61243)"/>
<path d="M258.453 125.337H245.994L242 117.247H254.459L258.453 125.337Z" fill="url(#paint5_linear_246_61243)"/>
<path d="M257.037 125.337H286.006V148.794H257.037V125.337Z" fill="#FF9100"/>
<path d="M245.994 125.337H274.963V148.794H245.994V125.337Z" fill="#12D87E"/>
<path d="M245.994 125.337H274.963V148.794H245.994V125.337Z" fill="#FF9100"/>
<path d="M275.019 125.337H286.006L290 117.247H279.012L275.019 125.337Z" fill="#D84200"/>
<path d="M245.956 134.525L265.025 148.803H275.037V125.337L245.956 134.525Z" fill="url(#paint6_linear_246_61243)"/>
<path d="M242 134.525H270.969L274.963 125.347H245.994L242 134.525Z" fill="#E84D00"/>
</g>
</g>
<g filter="url(#filter8_d_246_61243)">
<mask id="path-53-outside-5_246_61243" maskUnits="userSpaceOnUse" x="318" y="76.5" width="98" height="97" fill="black">
<rect fill="white" x="318" y="76.5" width="98" height="97"/>
<path d="M319 92.5C319 83.6634 326.163 76.5 335 76.5H400C408.837 76.5 416 83.6634 416 92.5V157.5C416 166.337 408.837 173.5 400 173.5H335C326.163 173.5 319 166.337 319 157.5V92.5Z"/>
</mask>
<path d="M319 92.5C319 83.6634 326.163 76.5 335 76.5H400C408.837 76.5 416 83.6634 416 92.5V157.5C416 166.337 408.837 173.5 400 173.5H335C326.163 173.5 319 166.337 319 157.5V92.5Z" fill="#FBFEFB" shape-rendering="crispEdges"/>
<path d="M319 76.5H416H319ZM416 173.5H319H416ZM335 173.5C325.611 173.5 318 165.889 318 156.5V93.5C318 84.1112 325.611 76.5 335 76.5C326.716 76.5 320 83.6634 320 92.5V157.5C320 166.337 326.716 173.5 335 173.5ZM416 76.5V173.5V76.5Z" fill="#EAF4EC" fill-opacity="0.7" mask="url(#path-53-outside-5_246_61243)"/>
</g>
<g filter="url(#filter9_d_246_61243)">
<mask id="path-55-outside-6_246_61243" maskUnits="userSpaceOnUse" x="13" y="76.5" width="98" height="97" fill="black">
<rect fill="white" x="13" y="76.5" width="98" height="97"/>
<path d="M110 92.5C110 83.6634 102.837 76.5 94 76.5H29C20.1634 76.5 13 83.6634 13 92.5V157.5C13 166.337 20.1634 173.5 29 173.5H94C102.837 173.5 110 166.337 110 157.5V92.5Z"/>
</mask>
<path d="M110 92.5C110 83.6634 102.837 76.5 94 76.5H29C20.1634 76.5 13 83.6634 13 92.5V157.5C13 166.337 20.1634 173.5 29 173.5H94C102.837 173.5 110 166.337 110 157.5V92.5Z" fill="#FBFEFB" shape-rendering="crispEdges"/>
<path d="M110 76.5H13H110ZM13 173.5H110H13ZM94 173.5C103.389 173.5 111 165.889 111 156.5V93.5C111 84.1112 103.389 76.5 94 76.5C102.284 76.5 109 83.6634 109 92.5V157.5C109 166.337 102.284 173.5 94 173.5ZM13 76.5V173.5V76.5Z" fill="#EAF4EC" fill-opacity="0.7" mask="url(#path-55-outside-6_246_61243)"/>
</g>
</g>
<defs>
<filter id="filter0_d_246_61243" x="110" y="-30.5" width="107" height="107" filterUnits="userSpaceOnUse" color-interpolation-filters="sRGB">
<feFlood flood-opacity="0" result="BackgroundImageFix"/>
<feColorMatrix in="SourceAlpha" type="matrix" values="0 0 0 0 0 0 0 0 0 0 0 0 0 0 0 0 0 0 127 0" result="hardAlpha"/>
<feMorphology radius="1" operator="dilate" in="SourceAlpha" result="effect1_dropShadow_246_61243"/>
<feOffset/>
<feGaussianBlur stdDeviation="2"/>
<feComposite in2="hardAlpha" operator="out"/>
<feColorMatrix type="matrix" values="0 0 0 0 0.937255 0 0 0 0 0.937255 0 0 0 0 0.952941 0 0 0 0.05 0"/>
<feBlend mode="normal" in2="BackgroundImageFix" result="effect1_dropShadow_246_61243"/>
<feBlend mode="normal" in="SourceGraphic" in2="effect1_dropShadow_246_61243" result="shape"/>
</filter>
<filter id="filter1_d_246_61243" x="110" y="71.5" width="107" height="107" filterUnits="userSpaceOnUse" color-interpolation-filters="sRGB">
<feFlood flood-opacity="0" result="BackgroundImageFix"/>
<feColorMatrix in="SourceAlpha" type="matrix" values="0 0 0 0 0 0 0 0 0 0 0 0 0 0 0 0 0 0 127 0" result="hardAlpha"/>
<feMorphology radius="1" operator="dilate" in="SourceAlpha" result="effect1_dropShadow_246_61243"/>
<feOffset/>
<feGaussianBlur stdDeviation="2"/>
<feComposite in2="hardAlpha" operator="out"/>
<feColorMatrix type="matrix" values="0 0 0 0 0.937255 0 0 0 0 0.937255 0 0 0 0 0.952941 0 0 0 0.05 0"/>
<feBlend mode="normal" in2="BackgroundImageFix" result="effect1_dropShadow_246_61243"/>
<feBlend mode="normal" in="SourceGraphic" in2="effect1_dropShadow_246_61243" result="shape"/>
</filter>
<filter id="filter2_d_246_61243" x="212" y="-30.5" width="107" height="107" filterUnits="userSpaceOnUse" color-interpolation-filters="sRGB">
<feFlood flood-opacity="0" result="BackgroundImageFix"/>
<feColorMatrix in="SourceAlpha" type="matrix" values="0 0 0 0 0 0 0 0 0 0 0 0 0 0 0 0 0 0 127 0" result="hardAlpha"/>
<feMorphology radius="1" operator="dilate" in="SourceAlpha" result="effect1_dropShadow_246_61243"/>
<feOffset/>
<feGaussianBlur stdDeviation="2"/>
<feComposite in2="hardAlpha" operator="out"/>
<feColorMatrix type="matrix" values="0 0 0 0 0.937255 0 0 0 0 0.937255 0 0 0 0 0.952941 0 0 0 0.05 0"/>
<feBlend mode="normal" in2="BackgroundImageFix" result="effect1_dropShadow_246_61243"/>
<feBlend mode="normal" in="SourceGraphic" in2="effect1_dropShadow_246_61243" result="shape"/>
</filter>
<filter id="filter3_d_246_61243" x="316" y="-27.5" width="102" height="101" filterUnits="userSpaceOnUse" color-interpolation-filters="sRGB">
<feFlood flood-opacity="0" result="BackgroundImageFix"/>
<feColorMatrix in="SourceAlpha" type="matrix" values="0 0 0 0 0 0 0 0 0 0 0 0 0 0 0 0 0 0 127 0" result="hardAlpha"/>
<feOffset/>
<feGaussianBlur stdDeviation="1"/>
<feComposite in2="hardAlpha" operator="out"/>
<feColorMatrix type="matrix" values="0 0 0 0 0.129412 0 0 0 0 0.129412 0 0 0 0 0.129412 0 0 0 0.05 0"/>
<feBlend mode="normal" in2="BackgroundImageFix" result="effect1_dropShadow_246_61243"/>
<feBlend mode="normal" in="SourceGraphic" in2="effect1_dropShadow_246_61243" result="shape"/>
</filter>
<filter id="filter4_d_246_61243" x="11" y="-27.5" width="102" height="101" filterUnits="userSpaceOnUse" color-interpolation-filters="sRGB">
<feFlood flood-opacity="0" result="BackgroundImageFix"/>
<feColorMatrix in="SourceAlpha" type="matrix" values="0 0 0 0 0 0 0 0 0 0 0 0 0 0 0 0 0 0 127 0" result="hardAlpha"/>
<feOffset/>
<feGaussianBlur stdDeviation="1"/>
<feComposite in2="hardAlpha" operator="out"/>
<feColorMatrix type="matrix" values="0 0 0 0 0.129412 0 0 0 0 0.129412 0 0 0 0 0.129412 0 0 0 0.05 0"/>
<feBlend mode="normal" in2="BackgroundImageFix" result="effect1_dropShadow_246_61243"/>
<feBlend mode="normal" in="SourceGraphic" in2="effect1_dropShadow_246_61243" result="shape"/>
</filter>
<filter id="filter5_d_246_61243" x="113" y="175.5" width="101" height="102" filterUnits="userSpaceOnUse" color-interpolation-filters="sRGB">
<feFlood flood-opacity="0" result="BackgroundImageFix"/>
<feColorMatrix in="SourceAlpha" type="matrix" values="0 0 0 0 0 0 0 0 0 0 0 0 0 0 0 0 0 0 127 0" result="hardAlpha"/>
<feOffset/>
<feGaussianBlur stdDeviation="1"/>
<feComposite in2="hardAlpha" operator="out"/>
<feColorMatrix type="matrix" values="0 0 0 0 0.129412 0 0 0 0 0.129412 0 0 0 0 0.129412 0 0 0 0.05 0"/>
<feBlend mode="normal" in2="BackgroundImageFix" result="effect1_dropShadow_246_61243"/>
<feBlend mode="normal" in="SourceGraphic" in2="effect1_dropShadow_246_61243" result="shape"/>
</filter>
<filter id="filter6_d_246_61243" x="215" y="175.5" width="101" height="102" filterUnits="userSpaceOnUse" color-interpolation-filters="sRGB">
<feFlood flood-opacity="0" result="BackgroundImageFix"/>
<feColorMatrix in="SourceAlpha" type="matrix" values="0 0 0 0 0 0 0 0 0 0 0 0 0 0 0 0 0 0 127 0" result="hardAlpha"/>
<feOffset/>
<feGaussianBlur stdDeviation="1"/>
<feComposite in2="hardAlpha" operator="out"/>
<feColorMatrix type="matrix" values="0 0 0 0 0.129412 0 0 0 0 0.129412 0 0 0 0 0.129412 0 0 0 0.05 0"/>
<feBlend mode="normal" in2="BackgroundImageFix" result="effect1_dropShadow_246_61243"/>
<feBlend mode="normal" in="SourceGraphic" in2="effect1_dropShadow_246_61243" result="shape"/>
</filter>
<filter id="filter7_d_246_61243" x="212" y="71.5" width="107" height="107" filterUnits="userSpaceOnUse" color-interpolation-filters="sRGB">
<feFlood flood-opacity="0" result="BackgroundImageFix"/>
<feColorMatrix in="SourceAlpha" type="matrix" values="0 0 0 0 0 0 0 0 0 0 0 0 0 0 0 0 0 0 127 0" result="hardAlpha"/>
<feMorphology radius="1" operator="dilate" in="SourceAlpha" result="effect1_dropShadow_246_61243"/>
<feOffset/>
<feGaussianBlur stdDeviation="2"/>
<feComposite in2="hardAlpha" operator="out"/>
<feColorMatrix type="matrix" values="0 0 0 0 0.937255 0 0 0 0 0.937255 0 0 0 0 0.952941 0 0 0 0.05 0"/>
<feBlend mode="normal" in2="BackgroundImageFix" result="effect1_dropShadow_246_61243"/>
<feBlend mode="normal" in="SourceGraphic" in2="effect1_dropShadow_246_61243" result="shape"/>
</filter>
<filter id="filter8_d_246_61243" x="316" y="74.5" width="102" height="101" filterUnits="userSpaceOnUse" color-interpolation-filters="sRGB">
<feFlood flood-opacity="0" result="BackgroundImageFix"/>
<feColorMatrix in="SourceAlpha" type="matrix" values="0 0 0 0 0 0 0 0 0 0 0 0 0 0 0 0 0 0 127 0" result="hardAlpha"/>
<feOffset/>
<feGaussianBlur stdDeviation="1"/>
<feComposite in2="hardAlpha" operator="out"/>
<feColorMatrix type="matrix" values="0 0 0 0 0.129412 0 0 0 0 0.129412 0 0 0 0 0.129412 0 0 0 0.05 0"/>
<feBlend mode="normal" in2="BackgroundImageFix" result="effect1_dropShadow_246_61243"/>
<feBlend mode="normal" in="SourceGraphic" in2="effect1_dropShadow_246_61243" result="shape"/>
</filter>
<filter id="filter9_d_246_61243" x="11" y="74.5" width="102" height="101" filterUnits="userSpaceOnUse" color-interpolation-filters="sRGB">
<feFlood flood-opacity="0" result="BackgroundImageFix"/>
<feColorMatrix in="SourceAlpha" type="matrix" values="0 0 0 0 0 0 0 0 0 0 0 0 0 0 0 0 0 0 127 0" result="hardAlpha"/>
<feOffset/>
<feGaussianBlur stdDeviation="1"/>
<feComposite in2="hardAlpha" operator="out"/>
<feColorMatrix type="matrix" values="0 0 0 0 0.129412 0 0 0 0 0.129412 0 0 0 0 0.129412 0 0 0 0.05 0"/>
<feBlend mode="normal" in2="BackgroundImageFix" result="effect1_dropShadow_246_61243"/>
<feBlend mode="normal" in="SourceGraphic" in2="effect1_dropShadow_246_61243" result="shape"/>
</filter>
<linearGradient id="paint0_linear_246_61243" x1="264.779" y1="117.361" x2="266.968" y2="117.361" gradientUnits="userSpaceOnUse">
<stop stop-color="#1BEA87"/>
<stop offset="0.209" stop-color="#1AD479"/>
<stop offset="0.514" stop-color="#1ABA69"/>
<stop offset="0.787" stop-color="#19AA5F"/>
<stop offset="1" stop-color="#19A45B"/>
</linearGradient>
<linearGradient id="paint1_linear_246_61243" x1="258.172" y1="105.277" x2="265.709" y2="105.277" gradientUnits="userSpaceOnUse">
<stop stop-color="#1BEA87"/>
<stop offset="0.209" stop-color="#1AD479"/>
<stop offset="0.514" stop-color="#1ABA69"/>
<stop offset="0.787" stop-color="#19AA5F"/>
<stop offset="1" stop-color="#19A45B"/>
</linearGradient>
<linearGradient id="paint2_linear_246_61243" x1="266.968" y1="114.486" x2="276.176" y2="114.486" gradientUnits="userSpaceOnUse">
<stop stop-color="#1BEA87"/>
<stop offset="0.209" stop-color="#1AD479"/>
<stop offset="0.514" stop-color="#1ABA69"/>
<stop offset="0.787" stop-color="#19AA5F"/>
<stop offset="1" stop-color="#19A45B"/>
</linearGradient>
<linearGradient id="paint3_linear_246_61243" x1="266.012" y1="105.294" x2="273.574" y2="105.294" gradientUnits="userSpaceOnUse">
<stop stop-color="#1BEA87"/>
<stop offset="0.209" stop-color="#1AD479"/>
<stop offset="0.514" stop-color="#1ABA69"/>
<stop offset="0.787" stop-color="#19AA5F"/>
<stop offset="1" stop-color="#19A45B"/>
</linearGradient>
<linearGradient id="paint4_linear_246_61243" x1="255.138" y1="115.852" x2="264.827" y2="115.852" gradientUnits="userSpaceOnUse">
<stop stop-color="#1BEA87"/>
<stop offset="0.209" stop-color="#1AD479"/>
<stop offset="0.514" stop-color="#1ABA69"/>
<stop offset="0.787" stop-color="#19AA5F"/>
<stop offset="1" stop-color="#19A45B"/>
</linearGradient>
<linearGradient id="paint5_linear_246_61243" x1="242" y1="121.293" x2="258.451" y2="121.293" gradientUnits="userSpaceOnUse">
<stop stop-color="#E84D00"/>
<stop offset="0.363" stop-color="#D43917"/>
<stop offset="0.721" stop-color="#C62C27"/>
<stop offset="1" stop-color="#C1272D"/>
</linearGradient>
<linearGradient id="paint6_linear_246_61243" x1="245.951" y1="137.068" x2="275.033" y2="137.068" gradientUnits="userSpaceOnUse">
<stop stop-color="#E84D00"/>
<stop offset="0.11" stop-color="#EC5100"/>
<stop offset="0.61" stop-color="#FA6100"/>
<stop offset="1" stop-color="#FF6700"/>
</linearGradient>
<clipPath id="clip0_246_61243">
<rect width="429" height="312" fill="white" transform="translate(0 -95)"/>
</clipPath>
<clipPath id="clip1_246_61243">
<rect width="48" height="48" fill="white" transform="translate(242 101)"/>
</clipPath>
</defs>
</svg>
