<svg width="91" height="93" viewBox="0 0 91 93" fill="none" xmlns="http://www.w3.org/2000/svg">
<g filter="url(#filter0_d_246_61456)">
<rect x="0.707031" y="25.792" width="69.7865" height="67.9577" rx="16" transform="rotate(-21.69 0.707031 25.792)" fill="white"/>
<rect x="1.35642" y="26.0718" width="68.7865" height="66.9577" rx="15.5" transform="rotate(-21.69 1.35642 26.0718)" stroke="#EAF4EC" stroke-opacity="0.7"/>
<g clip-path="url(#clip0_246_61456)">
<path fill-rule="evenodd" clip-rule="evenodd" d="M52.4236 60.9809L53.6132 61.6353C54.6055 62.181 55.8643 61.8158 56.4101 60.8233C56.9561 59.8308 56.772 58.679 55.9636 58.2289C56.9534 58.7833 58.2161 58.4068 58.7605 57.4169C59.0938 56.8109 59.0843 56.1114 58.8025 55.5308L59.1114 55.4023L45.1679 44.3037C41.1908 41.6214 38.4197 45.0776 35.6853 43.5389L32.0632 41.8678C31.4512 41.5854 30.7224 41.8511 30.4357 42.4611L26.5461 50.7369C26.4007 51.0464 26.387 51.3652 26.5056 51.6859C26.6241 52.0067 26.8419 52.24 27.1536 52.3805C28.4458 52.9627 30.4261 53.8537 30.8321 54.0113C32.0715 54.4924 31.6629 56.4292 32.3413 57.3133C33.3854 58.6741 33.5557 59.6663 34.4442 60.1767L47.0328 67.407C48.0148 67.971 49.2839 67.5875 49.8297 66.5951C50.3754 65.6029 50.0081 64.3474 49.0207 63.7938L50.4384 64.5899C51.4258 65.1443 52.6895 64.7704 53.2354 63.7779C53.7815 62.7854 53.4106 61.5365 52.4236 60.9809Z" fill="#FFECE4"/>
<path fill-rule="evenodd" clip-rule="evenodd" d="M45.5828 44.6343L45.1674 44.3037C41.1903 41.6214 38.4192 45.0776 35.6848 43.5389L32.0627 41.8678C31.4507 41.5854 30.7219 41.8511 30.4352 42.4611L29.5752 44.2909C30.4308 43.8618 31.4497 44.1231 32.5803 44.801C37.9976 48.049 39.8588 44.5304 44.1082 46.0323C44.278 45.8719 44.4451 45.7086 44.6094 45.5426C44.9212 45.2265 45.246 44.9235 45.5828 44.6343ZM55.2519 57.8306L55.9631 58.2289C56.9077 58.7579 58.1036 58.4403 58.6839 57.5442L52.0212 53.7567C51.5502 53.4914 50.9534 53.6583 50.6882 54.1293C50.423 54.6003 50.5898 55.1971 51.0608 55.4624C52.4756 56.2722 55.2889 57.8514 55.2519 57.8306ZM52.0951 60.8023L47.5264 58.2075C47.0554 57.9423 46.8886 57.3455 47.1537 56.8745C47.4189 56.4035 48.0157 56.2367 48.4867 56.5019L56.3249 60.9639C55.7419 61.8488 54.557 62.1536 53.6127 61.6352L52.0951 60.8023ZM45.7588 61.8545C45.9056 62.0712 46.0927 62.1251 46.3271 62.2589L49.5236 64.083L50.4584 64.6013C51.4091 65.1283 52.6086 64.8101 53.1862 63.9055L47.0156 60.4058C46.5446 60.1406 45.9478 60.3074 45.6826 60.7784C45.5885 60.9456 45.5456 61.1366 45.5592 61.3279C45.5727 61.5192 45.6421 61.7023 45.7588 61.8545ZM45.715 66.6504L46.6474 64.8775L49.7883 66.6658C49.2222 67.6053 47.9906 67.9574 47.0324 67.4069L45.715 66.6504Z" fill="#FFCBBE"/>
<path fill-rule="evenodd" clip-rule="evenodd" d="M43.6226 62.4197C44.2598 61.712 45.3255 61.4986 46.2007 61.9663C46.4778 62.1139 46.7182 62.3219 46.9042 62.5748C47.3875 63.2322 47.4561 64.1161 47.0707 64.8366L45.8167 67.1812C45.2666 68.2099 43.9748 68.6013 42.9463 68.0511C42.1195 67.6089 41.7046 66.6874 41.8593 65.8086C41.2497 66.6587 40.0813 66.9491 39.1354 66.4432C38.3257 66.0102 37.9111 65.1177 38.0394 64.2557C37.4859 65.2894 36.2007 65.6887 35.1642 65.1345C34.1357 64.5844 33.7442 63.2926 34.2943 62.264L34.6897 61.5248C34.0435 62.1099 33.0709 62.2588 32.2627 61.8265C31.2341 61.2764 30.8427 59.9846 31.3927 58.9562L32.7005 56.5111C33.2507 55.4823 34.5419 55.0921 35.5708 55.6412C36.5591 56.1687 36.9589 57.3856 36.5001 58.3914C37.1463 57.7992 38.1242 57.6474 38.9366 58.081C39.8112 58.5478 40.2248 59.5544 39.9906 60.477C40.6278 59.7694 41.6932 59.5565 42.5686 60.0236C43.4433 60.4904 43.8568 61.4971 43.6226 62.4197Z" fill="#F6DCCD"/>
<path fill-rule="evenodd" clip-rule="evenodd" d="M34.6901 61.5249C34.0439 62.11 33.0712 62.2588 32.2631 61.8266C32.0889 61.7335 31.9287 61.6164 31.7871 61.4788C32.4374 61.5076 32.7288 60.995 33.0251 60.4738L35.2468 56.5654C35.4259 56.2502 35.4396 55.8341 35.3013 55.5208C35.3927 55.5542 35.4829 55.5943 35.5711 55.6413C36.5595 56.1688 36.9592 57.3857 36.5004 58.3916L34.6901 61.5249ZM38.0398 64.2557L39.9913 60.4758C40.2248 59.5537 39.8111 58.5478 38.937 58.0812C38.8339 58.0261 38.7264 57.9797 38.6157 57.9424C38.7801 58.33 38.6946 58.7003 38.6655 58.7564L35.7267 64.4479C35.6226 64.6495 35.2457 64.8877 34.8715 64.945C34.9624 65.015 35.0602 65.0786 35.1645 65.1344C36.2186 65.6982 37.4997 65.2667 38.0398 64.2557ZM45.9629 61.8574C46.0435 61.8884 46.123 61.9246 46.201 61.9663C46.4781 62.1139 46.7185 62.3218 46.9046 62.5748C47.3879 63.2322 47.4564 64.116 47.071 64.8366L45.8171 67.1812C45.267 68.2098 43.9752 68.6012 42.9466 68.0511C42.9351 68.045 42.9238 68.0386 42.9124 68.0323C43.1325 67.9523 43.2713 67.8311 43.3342 67.7094L45.9513 62.641C46.0546 62.441 46.0746 62.125 45.9629 61.8574ZM41.8596 65.8087C41.25 66.6587 40.0816 66.9492 39.1357 66.4433C39.0671 66.4066 39.0006 66.3661 38.9365 66.3222C39.297 66.1648 39.6015 65.8948 39.8101 65.4909L42.2491 60.7675C42.4215 60.4336 42.3846 60.146 42.2407 59.8827C42.3539 59.9203 42.4637 59.9675 42.5689 60.0238C43.4435 60.4905 43.8571 61.4971 43.6229 62.4197L41.8596 65.8087Z" fill="#F1CBBC"/>
<path fill-rule="evenodd" clip-rule="evenodd" d="M50.8261 50.5603L57.9489 54.62C58.3191 54.8304 58.6169 55.1481 58.8028 55.5313L62.8221 53.8543C63.4368 53.5978 63.7357 52.8965 63.4948 52.2755L60.1402 43.6217C60.0084 43.2816 59.763 43.04 59.421 42.9133C59.079 42.7866 58.7355 42.8101 58.414 42.9822L56.0097 44.2691C53.1379 45.7628 50.3728 40.7358 45.1731 44.3027C44.497 44.7647 43.8626 45.3192 43.2871 45.9007C41.843 47.36 40.0813 48.6618 38.0892 49.8246C38.0585 49.8419 38.0321 49.8658 38.0118 49.8945C37.9914 49.9232 37.9777 49.956 37.9716 49.9906C37.9578 50.0627 37.9738 50.1303 38.0189 50.1883C42.1444 55.4965 47.1649 48.4735 50.8261 50.5603Z" fill="#F6DCCD"/>
<path fill-rule="evenodd" clip-rule="evenodd" d="M56.3506 53.709L57.9488 54.62C58.3191 54.8304 58.6168 55.1481 58.8028 55.5313L62.822 53.8543C63.4364 53.5979 63.7351 52.8974 63.4952 52.2766L62.5113 49.7385C62.5568 50.5455 62.3697 51.2552 61.5396 51.5937L56.3506 53.709ZM38.5771 50.8279C42.5903 54.887 47.3284 48.5668 50.8261 50.5603C45.287 46.8087 43.2241 51.7523 38.5771 50.8279Z" fill="#F1CBBC"/>
<path fill-rule="evenodd" clip-rule="evenodd" d="M50.3048 38.4243C48.8058 39.4829 46.9765 40.105 45.002 40.105C43.0274 40.105 41.1982 39.4829 39.6992 38.4243L36.6001 39.7899C36.549 39.8131 36.4921 39.8203 36.4369 39.8104C36.3817 39.8005 36.3308 39.774 36.2909 39.7345C36.2502 39.6959 36.2221 39.6459 36.2105 39.591C36.1989 39.5361 36.2042 39.479 36.2259 39.4272L37.5101 36.2478C36.4329 34.7409 35.7988 32.8954 35.7988 30.9019C35.7988 25.8193 39.9191 21.699 45.0018 21.699C50.0845 21.699 54.2048 25.8193 54.2048 30.9019C54.2048 32.8955 53.5707 34.7409 52.4935 36.2478L53.7777 39.4272C53.7993 39.479 53.8047 39.5361 53.7931 39.591C53.7814 39.6459 53.7534 39.6959 53.7127 39.7345C53.6728 39.774 53.6219 39.8005 53.5667 39.8104C53.5115 39.8203 53.4546 39.8131 53.4035 39.7899L50.3048 38.4243Z" fill="#A2E19F"/>
<path fill-rule="evenodd" clip-rule="evenodd" d="M51.1869 36.2478L52.4475 39.3685L53.4037 39.7899C53.4547 39.8131 53.5117 39.8203 53.5669 39.8104C53.6221 39.8005 53.673 39.774 53.7129 39.7345C53.7536 39.6959 53.7816 39.6459 53.7933 39.591C53.8049 39.5361 53.7995 39.479 53.7779 39.4272L52.4936 36.2478C53.5709 34.7409 54.2049 32.8954 54.2049 30.9019C54.2049 25.8193 50.0846 21.699 45.002 21.699C44.7823 21.699 44.5644 21.7067 44.3486 21.7218C49.1264 22.0569 52.8983 26.039 52.8983 30.902C52.8982 32.8954 52.2641 34.7409 51.1869 36.2478Z" fill="#97CF92"/>
<path fill-rule="evenodd" clip-rule="evenodd" d="M36.5452 30.9531C36.5452 26.2919 40.3395 22.5008 45.0006 22.5008C49.6616 22.5008 53.456 26.292 53.456 30.9531C53.456 32.7279 52.912 34.4248 51.8816 35.8629C51.8079 35.9655 51.7614 36.0852 51.7467 36.2107C51.732 36.3362 51.7496 36.4633 51.7976 36.5802L52.6467 38.6894L50.6036 37.7896C50.3648 37.6826 50.0862 37.7108 49.8695 37.8626C48.4411 38.8723 46.7562 39.4066 45.0005 39.4066C43.2448 39.4066 41.5599 38.8723 40.1316 37.8626C40.0046 37.7735 39.8533 37.7256 39.6982 37.7256C39.5931 37.7256 39.4892 37.7473 39.393 37.7896L37.3543 38.6894L38.2034 36.5802C38.2515 36.4633 38.269 36.3362 38.2543 36.2107C38.2396 36.0852 38.1932 35.9655 38.1194 35.8629C37.0891 34.4248 36.5452 32.7279 36.5452 30.9531ZM35.2715 39.8397C35.2148 39.9778 35.2009 40.1298 35.2317 40.276C35.2624 40.4221 35.3364 40.5556 35.444 40.6592C35.5508 40.763 35.6861 40.8325 35.8327 40.8587C35.9793 40.8849 36.1304 40.8667 36.2665 40.8064L39.6231 39.3289C41.2239 40.3619 43.0768 40.9068 45.0006 40.9068C46.9243 40.9068 48.7728 40.3619 50.3781 39.3289L53.7346 40.8064C53.8707 40.8667 54.0218 40.8849 54.1684 40.8587C54.315 40.8325 54.4504 40.763 54.5572 40.6592C54.7783 40.4464 54.8446 40.1228 54.7297 39.8397L53.3366 36.3906C54.398 34.7735 54.9552 32.9022 54.9552 30.9531C54.9552 25.465 50.4887 21.0007 45.0007 21.0007C39.5126 21.0007 35.046 25.465 35.046 30.9531C35.046 32.9022 35.6033 34.7735 36.6646 36.3906L35.2715 39.8397ZM40.1361 30.9531C40.1361 31.4454 40.5341 31.8438 41.0249 31.8438C41.5158 31.8438 41.9139 31.4454 41.9139 30.9531C41.9139 30.462 41.5159 30.0626 41.0249 30.0626C40.534 30.0626 40.1361 30.462 40.1361 30.9531ZM48.0873 30.9531C48.0873 31.4454 48.4853 31.8438 48.9761 31.8438C49.467 31.8438 49.865 31.4454 49.865 30.9531C49.865 30.462 49.467 30.0626 48.9761 30.0626C48.4853 30.0626 48.0873 30.462 48.0873 30.9531ZM44.0984 30.9531C44.0984 31.4454 44.5008 31.8438 44.9917 31.8438C45.4825 31.8438 45.8806 31.4454 45.8806 30.9531C45.8806 30.462 45.4826 30.0626 44.9917 30.0626C44.5009 30.0626 44.0984 30.462 44.0984 30.9531ZM58.86 54.8988C58.6436 54.6397 58.3831 54.4211 58.0905 54.2529L51.1077 50.2751C50.4886 49.9226 49.8518 49.783 49.2061 49.783C47.9634 49.783 46.6854 50.3005 45.4339 50.8067C43.0989 51.7507 41.0603 52.5777 39.1542 50.5432C41.0116 49.4118 42.5992 48.1854 43.8817 46.8879C44.4521 46.3151 45.027 45.8257 45.5931 45.4328C48.2995 43.5617 50.1745 44.3276 51.9878 45.0692C53.3277 45.6166 54.7119 46.182 56.1713 45.4234L58.9794 43.9197L62.6146 53.2965L58.86 54.8988ZM57.8562 57.2839C58.1879 56.681 57.9579 55.9058 57.3476 55.5561L50.3649 51.5783C49.1886 50.906 47.707 51.5042 45.9956 52.197C43.3954 53.2499 40.1582 54.5605 37.4164 50.7823C37.2925 50.6099 37.244 50.3923 37.2881 50.1843C37.3103 50.0811 37.3541 49.9838 37.4166 49.8988C37.4791 49.8137 37.5589 49.743 37.6508 49.691C39.7204 48.5052 41.4583 47.2077 42.816 45.8333C43.1408 45.5048 43.4802 45.1909 43.8331 44.8928C42.3295 44.2357 41.047 44.5385 39.6983 44.8564C38.3627 45.1723 36.9786 45.4995 35.559 44.7158L31.6276 42.9008L27.4264 51.837C27.4883 51.8643 27.5546 51.8944 27.6254 51.9261C28.8106 52.4596 31.0129 53.4523 31.4153 53.6099C32.4413 54.0064 32.711 54.9702 32.8658 55.7671C33.706 54.9393 35.0195 54.7123 36.1162 55.2974C36.7618 55.6424 37.2395 56.2236 37.4561 56.9325C37.5048 57.0936 37.5357 57.2558 37.5579 57.419C38.1902 57.2886 38.8404 57.3814 39.4108 57.688C40.0609 58.0339 40.5385 58.6144 40.7508 59.3239C40.764 59.3539 40.7685 59.3839 40.7773 59.4148C41.3699 59.2386 42.3207 59.2444 42.9708 59.5921C43.6209 59.9371 44.1913 60.704 44.3373 61.318C44.6469 61.214 44.9785 61.1614 45.3057 61.17C45.7347 61.1812 46.1548 61.2947 46.5307 61.4953C46.8411 61.6612 47.1172 61.8846 47.3443 62.1535L50.4001 63.8428C51.0103 64.1795 51.7843 63.9555 52.1204 63.3422C52.4565 62.7356 52.2265 61.9623 51.6162 61.6173L47.3045 59.1919C46.9463 58.9894 46.818 58.5319 47.0214 58.171C47.0697 58.0851 47.1344 58.0096 47.2119 57.9487C47.2894 57.8878 47.3781 57.8428 47.473 57.8162C47.5678 57.7897 47.667 57.7821 47.7648 57.7939C47.8627 57.8057 47.9572 57.8366 48.043 57.885L53.4913 60.931C53.7876 61.0922 54.1282 61.1297 54.4554 61.035C54.7826 60.9404 55.0524 60.7256 55.2115 60.4304C55.5476 59.8238 55.3221 59.0494 54.7073 58.7053C54.6897 58.695 50.4001 56.2687 50.4001 56.2687C50.0375 56.0644 49.9136 55.6069 50.1171 55.2469C50.1654 55.161 50.2301 55.0855 50.3076 55.0247C50.3851 54.9639 50.4738 54.9189 50.5687 54.8925C50.6636 54.866 50.7628 54.8585 50.8605 54.8704C50.9583 54.8823 51.0528 54.9134 51.1386 54.9619L56.1402 57.7883C56.4277 57.9497 56.7594 57.988 57.0821 57.8963C57.4183 57.8013 57.6925 57.5838 57.8562 57.2839ZM49.5998 66.5614C49.2593 67.1735 48.4898 67.3976 47.875 67.0609L46.9597 66.5584L47.6673 65.2413C47.8398 64.9206 47.9414 64.5756 47.9769 64.2233L49.0957 64.8364V64.8382C49.7103 65.1775 49.9314 65.95 49.5998 66.5614ZM44.3637 67.4445C44.0364 67.5439 43.6959 67.5101 43.3997 67.3517C42.7806 67.0216 42.5506 66.252 42.8779 65.6359C42.8779 65.6359 44.1073 63.3392 44.1073 63.3382C44.4301 62.7326 45.2217 62.4954 45.8231 62.8188C46.4157 63.1347 46.681 63.94 46.3449 64.5345L45.1155 66.8313C44.9563 67.1285 44.691 67.346 44.3637 67.4445ZM40.6314 65.8696C40.3042 65.9679 39.9592 65.9352 39.6629 65.7767C39.0482 65.4467 38.8138 64.677 39.1455 64.0601C39.1455 64.0601 40.5474 61.4353 40.5474 61.4342C40.8569 60.8192 41.6707 60.599 42.2677 60.9149C42.5595 61.0723 42.7763 61.3376 42.878 61.6629C42.9753 61.9901 42.9444 62.3343 42.7851 62.6304L41.3788 65.2564C41.2239 65.5525 40.9541 65.771 40.6314 65.8696ZM36.7397 64.5869C36.4124 64.6853 36.0719 64.6525 35.7757 64.4942C35.1565 64.1642 34.9222 63.3945 35.2539 62.7776C35.2539 62.7776 36.9918 59.5282 36.9918 59.5274C37.3147 58.9218 38.1018 58.6893 38.7077 59.0118C39.3091 59.3324 39.5524 60.1189 39.2251 60.7273L37.4872 63.9739C37.3323 64.2701 37.0626 64.4885 36.7397 64.5869ZM32.9321 61.2522C32.313 60.9222 32.0786 60.1525 32.4103 59.5356C32.4103 59.5356 33.6884 57.1414 33.6928 57.1403C34.0112 56.5442 34.7984 56.2939 35.4086 56.621C36.0145 56.9435 36.2533 57.7309 35.926 58.3366L34.6435 60.7356C34.5653 60.8815 34.459 61.0104 34.3307 61.115C34.2024 61.2196 34.0548 61.2978 33.8962 61.3451C33.569 61.4434 33.2284 61.4108 32.9321 61.2522ZM64.2773 53.4317L60.0717 42.5876C59.9965 42.387 59.8329 42.2303 59.6339 42.1553C59.5343 42.1184 59.428 42.103 59.322 42.1103C59.216 42.1176 59.1128 42.1474 59.0192 42.1976L55.4725 44.0959C54.6765 44.5103 53.885 44.2234 52.5538 43.6806C50.7672 42.9494 48.3438 41.9622 45.1907 43.9057C42.8999 42.5604 40.9453 43.0206 39.3533 43.3967C38.1415 43.6825 37.1863 43.9085 36.2709 43.3928C36.2526 43.3821 36.2334 43.373 36.2135 43.3657L31.5789 41.2273C31.2075 41.0547 30.7608 41.2159 30.5884 41.589C30.5884 41.589 25.7504 51.8838 25.746 51.8903C25.5691 52.2624 25.7416 52.7424 26.144 52.9046C26.2059 52.9318 30.4689 54.8499 30.8758 55.0074C31.1942 55.1312 31.2959 55.5136 31.4375 56.2956C31.5127 56.7005 31.5923 57.144 31.7736 57.5491L31.0882 58.8286C30.3673 60.1739 30.8759 61.8549 32.2203 62.5749C32.6272 62.7916 33.0738 62.9021 33.5204 62.9021C33.5603 62.9021 33.6044 62.8993 33.6443 62.8974C33.4453 64.042 33.9848 65.2383 35.0638 65.8158C35.882 66.2526 36.9167 66.2433 37.7349 65.7821C37.6685 65.8204 38.2213 66.5226 38.2876 66.5894C38.5485 66.8547 38.867 67.0665 39.2119 67.209C39.9106 67.4987 40.7066 67.4884 41.3965 67.18C41.2019 67.2671 42.3252 68.4437 42.4447 68.5243C43.1301 68.9893 44.0057 69.1206 44.7973 68.8805C45.3811 68.7034 45.8808 68.35 46.2302 67.868L47.1545 68.3752C47.5604 68.6002 48.017 68.718 48.4811 68.7174C49.4585 68.7174 50.4093 68.199 50.9134 67.284C51.2131 66.7369 51.3191 66.1046 51.2141 65.4897C52.1163 65.4222 52.9698 64.915 53.4341 64.0655C53.6871 63.6084 53.8023 63.0877 53.7658 62.5665C53.8764 62.5796 53.987 62.5872 54.0931 62.5872C54.354 62.5872 54.6149 62.5495 54.8759 62.4746C55.5879 62.2684 56.1716 61.7987 56.5299 61.1538C56.8261 60.6139 56.919 60.0137 56.8394 59.4419C57.0561 59.4335 57.2772 59.4005 57.4939 59.3388C58.2147 59.1334 58.8117 58.6609 59.1699 58.0066C59.4707 57.459 59.5635 56.8477 59.4751 56.2675L63.8709 54.3925C64.2419 54.2332 64.4232 53.8086 64.2773 53.4317Z" fill="black"/>
</g>
</g>
<defs>
<filter id="filter0_d_246_61456" x="-4.29297" y="-2" width="99.9619" height="98.938" filterUnits="userSpaceOnUse" color-interpolation-filters="sRGB">
<feFlood flood-opacity="0" result="BackgroundImageFix"/>
<feColorMatrix in="SourceAlpha" type="matrix" values="0 0 0 0 0 0 0 0 0 0 0 0 0 0 0 0 0 0 127 0" result="hardAlpha"/>
<feMorphology radius="1" operator="dilate" in="SourceAlpha" result="effect1_dropShadow_246_61456"/>
<feOffset dy="3"/>
<feGaussianBlur stdDeviation="2"/>
<feComposite in2="hardAlpha" operator="out"/>
<feColorMatrix type="matrix" values="0 0 0 0 0.937255 0 0 0 0 0.937255 0 0 0 0 0.952941 0 0 0 0.45 0"/>
<feBlend mode="normal" in2="BackgroundImageFix" result="effect1_dropShadow_246_61456"/>
<feBlend mode="normal" in="SourceGraphic" in2="effect1_dropShadow_246_61456" result="shape"/>
</filter>
<clipPath id="clip0_246_61456">
<rect width="48" height="48" fill="white" transform="translate(21 21)"/>
</clipPath>
</defs>
</svg>
