<svg width="91" height="92" viewBox="0 0 91 92" fill="none" xmlns="http://www.w3.org/2000/svg">
<g filter="url(#filter0_d_246_61279)">
<rect x="1" y="25.4224" width="68.7865" height="67.9577" rx="16" transform="rotate(-21.69 1 25.4224)" fill="white"/>
<rect x="1.64939" y="25.7022" width="67.7865" height="66.9577" rx="15.5" transform="rotate(-21.69 1.64939 25.7022)" stroke="#EAF4EC" stroke-opacity="0.7"/>
<path d="M68.5166 35.2842L66.5166 39.2842L45.5166 26.2842L24.5166 39.2842L22.5166 35.2842L45.5166 21.2842L68.5166 35.2842Z" fill="#7C7D7D"/>
<path d="M68.5166 35.2842L67.1366 38.0442L45.5166 24.2842L23.6666 37.5842L22.5166 35.2842L45.5166 21.2842L68.5166 35.2842Z" fill="#919191"/>
<path d="M63.5166 37.4242V67.2842H56.5166V45.2842H34.5166V59.2842H30.5166V51.2842H27.5166V37.4242L45.5166 26.2842L63.5166 37.4242Z" fill="#374F68"/>
<path d="M63.5166 39.4242V65.2842H56.5166V45.2842H34.5166V59.2842H30.5166V51.2842H29.5166V38.1842L45.5166 28.2842L63.5166 39.4242Z" fill="#425B72"/>
<path d="M58.5166 41.2842H32.5166V45.2842H58.5166V41.2842Z" fill="#7C7D7D"/>
<path d="M58.5166 41.2842V43.2842H36.5166C35.9862 43.2842 35.4775 43.0735 35.1024 42.6984C34.7273 42.3233 34.5166 41.8146 34.5166 41.2842H58.5166Z" fill="#919191"/>
<path d="M30.5166 59.2842H22.5166V67.2842H30.5166V59.2842Z" fill="#EDB996"/>
<path d="M30.5166 59.2842V65.2842C28.9253 65.2842 27.3992 64.652 26.274 63.5268C25.1487 62.4016 24.5166 60.8755 24.5166 59.2842H30.5166Z" fill="#F6CCAF"/>
<path d="M56.5166 45.2842V67.2842H38.5166V59.2842H34.5166V45.2842H56.5166Z" fill="#2C435E"/>
<path d="M54.5166 59.2842V67.2842H38.5166V59.2842H34.5166V55.2842H50.5166C51.5775 55.2842 52.5949 55.7056 53.345 56.4558C54.0952 57.2059 54.5166 58.2233 54.5166 59.2842Z" fill="#374F68"/>
<path d="M38.5166 59.2842H30.5166V67.2842H38.5166V59.2842Z" fill="#EDB996"/>
<path d="M38.5166 59.2842V65.2842C36.9253 65.2842 35.3992 64.652 34.274 63.5268C33.1487 62.4016 32.5166 60.8755 32.5166 59.2842H38.5166Z" fill="#F6CCAF"/>
<path d="M30.5166 51.2842H22.5166V59.2842H30.5166V51.2842Z" fill="#EDB996"/>
<path d="M30.5166 51.2842V57.2842C28.9253 57.2842 27.3992 56.652 26.274 55.5268C25.1487 54.4016 24.5166 52.8755 24.5166 51.2842H30.5166Z" fill="#F6CCAF"/>
<path d="M27.5166 51.2842V52.2842C27.5166 52.5494 27.4112 52.8038 27.2237 52.9913C27.0362 53.1788 26.7818 53.2842 26.5166 53.2842C26.2514 53.2842 25.997 53.1788 25.8095 52.9913C25.622 52.8038 25.5166 52.5494 25.5166 52.2842V51.2842H27.5166ZM27.5166 59.2842V60.2842C27.5166 60.5494 27.4112 60.8038 27.2237 60.9913C27.0362 61.1788 26.7818 61.2842 26.5166 61.2842C26.2514 61.2842 25.997 61.1788 25.8095 60.9913C25.622 60.8038 25.5166 60.5494 25.5166 60.2842V59.2842H27.5166ZM35.5166 59.2842V60.2842C35.5166 60.5494 35.4112 60.8038 35.2237 60.9913C35.0362 61.1788 34.7818 61.2842 34.5166 61.2842C34.2514 61.2842 33.997 61.1788 33.8095 60.9913C33.622 60.8038 33.5166 60.5494 33.5166 60.2842V59.2842H35.5166Z" fill="#A87E6B"/>
<path d="M44.5166 55.2842V53.2842C44.5166 53.019 44.622 52.7646 44.8095 52.5771C44.997 52.3895 45.2514 52.2842 45.5166 52.2842C45.7818 52.2842 46.0362 52.3895 46.2237 52.5771C46.4112 52.7646 46.5166 53.019 46.5166 53.2842V55.2842C46.5166 55.5494 46.4112 55.8038 46.2237 55.9913C46.0362 56.1788 45.7818 56.2842 45.5166 56.2842C45.2514 56.2842 44.997 56.1788 44.8095 55.9913C44.622 55.8038 44.5166 55.5494 44.5166 55.2842Z" fill="#7C7D7D"/>
<path d="M56.5166 45.2842H34.5166V49.2842H56.5166V45.2842Z" fill="#DAD7E5"/>
<path d="M56.5166 45.2842V47.2842H38.5166C37.9862 47.2842 37.4775 47.0735 37.1024 46.6984C36.7273 46.3233 36.5166 45.8146 36.5166 45.2842H56.5166Z" fill="#EDEBF2"/>
<path d="M56.5166 49.2842H34.5166V53.2842H56.5166V49.2842Z" fill="#DAD7E5"/>
<path d="M56.5166 49.2842V51.2842H38.5166C37.9862 51.2842 37.4775 51.0735 37.1024 50.6984C36.7273 50.3233 36.5166 49.8146 36.5166 49.2842H56.5166Z" fill="#EDEBF2"/>
</g>
<defs>
<filter id="filter0_d_246_61279" x="-4" y="-2" width="99.0322" height="98.5684" filterUnits="userSpaceOnUse" color-interpolation-filters="sRGB">
<feFlood flood-opacity="0" result="BackgroundImageFix"/>
<feColorMatrix in="SourceAlpha" type="matrix" values="0 0 0 0 0 0 0 0 0 0 0 0 0 0 0 0 0 0 127 0" result="hardAlpha"/>
<feMorphology radius="1" operator="dilate" in="SourceAlpha" result="effect1_dropShadow_246_61279"/>
<feOffset dy="3"/>
<feGaussianBlur stdDeviation="2"/>
<feComposite in2="hardAlpha" operator="out"/>
<feColorMatrix type="matrix" values="0 0 0 0 0.937255 0 0 0 0 0.937255 0 0 0 0 0.952941 0 0 0 0.45 0"/>
<feBlend mode="normal" in2="BackgroundImageFix" result="effect1_dropShadow_246_61279"/>
<feBlend mode="normal" in="SourceGraphic" in2="effect1_dropShadow_246_61279" result="shape"/>
</filter>
</defs>
</svg>
