<svg width="91" height="93" viewBox="0 0 91 93" fill="none" xmlns="http://www.w3.org/2000/svg">
<g filter="url(#filter0_d_246_61280)">
<rect x="27.2422" width="68.7865" height="67.9577" rx="16" transform="rotate(22.6861 27.2422 0)" fill="white"/>
<rect x="27.5107" y="0.654157" width="67.7865" height="66.9577" rx="15.5" transform="rotate(22.6861 27.5107 0.654157)" stroke="#EAF4EC" stroke-opacity="0.7"/>
<g clip-path="url(#clip0_246_61280)">
<path d="M64.3571 46.0248L64.3571 66.8823L27.2771 66.8823L27.0596 46.2873L27.0596 46.2423L45.9821 28.9398L64.3571 46.0248Z" fill="#AAA9A9"/>
<path d="M45.9741 28.9399L25.1091 48.0724L21.8691 44.6149L45.9741 22.3474L45.9741 28.9399Z" fill="#403A46"/>
<path d="M45.9736 28.9399L66.6286 48.0724L69.8686 44.6149L45.9736 22.3474L45.9736 28.9399Z" fill="#403A46"/>
<path d="M40.6264 59.6449C41.0738 59.6449 41.4364 59.2823 41.4364 58.8349C41.4364 58.3876 41.0738 58.0249 40.6264 58.0249C40.1791 58.0249 39.8164 58.3876 39.8164 58.8349C39.8164 59.2823 40.1791 59.6449 40.6264 59.6449Z" fill="#FFFEFF"/>
<path d="M55.8663 47.9749L55.8663 66.8824L35.5937 66.8824L35.5937 47.9749C35.6162 46.6624 36.6888 45.6049 38.0088 45.6049L53.4438 45.6049C54.7638 45.6049 55.8438 46.6699 55.8663 47.9749Z" fill="#403A46"/>
<path d="M55.8663 47.9749L35.5937 47.9749C35.6162 46.6624 36.6888 45.6049 38.0088 45.6049L53.4438 45.6049C54.7713 45.6049 55.8438 46.6624 55.8663 47.9749Z" fill="#B8C9D3"/>
<path d="M55.8663 48.0199L55.8663 49.9999L35.5937 49.9999L35.5937 48.0199C35.5937 48.0049 35.5937 47.9899 35.5938 47.9749L55.8588 47.9749C55.8663 47.9899 55.8663 48.0049 55.8663 48.0199Z" fill="#DFF1FB"/>
<path d="M55.8663 49.9999L35.5938 49.9999L35.5937 51.8749L55.8663 51.8749L55.8663 49.9999Z" fill="#B8C9D3"/>
<path d="M45.5464 56.2924L42.6064 56.2924L42.6064 59.2324L45.5464 59.2324L45.5464 56.2924Z" fill="#E2791D"/>
<path d="M47.024 59.1874L44.084 59.1874L44.084 61.7224L47.024 61.7224L47.024 59.1874Z" fill="#E2791D"/>
<path d="M48.4869 56.2924L45.5469 56.2924L45.5469 59.2324L48.4869 59.2324L48.4869 56.2924Z" fill="#FCAF43"/>
<path d="M44.0621 59.1874L41.1221 59.1874L41.1221 61.7224L44.0621 61.7224L44.0621 59.1874Z" fill="#FCAF43"/>
<path d="M49.9644 59.2324L47.0244 59.2324L47.0244 61.7224L49.9644 61.7224L49.9644 59.2324Z" fill="#FCAF43"/>
<path d="M47.9245 57.3048L46.207 57.3048L46.207 57.4473L47.9245 57.4473L47.9245 57.3048Z" fill="white"/>
<path d="M47.3395 57.7024L46.207 57.7024L46.207 57.8449L47.3395 57.8449L47.3395 57.7024Z" fill="white"/>
<path d="M49.2146 60.7174L47.4971 60.7174L47.4971 60.8599L49.2146 60.8599L49.2146 60.7174Z" fill="white"/>
<path d="M48.6296 61.1149L47.4971 61.1149L47.4971 61.2574L48.6296 61.2574L48.6296 61.1149Z" fill="white"/>
<path d="M43.3113 60.7174L41.5938 60.7174L41.5937 60.8599L43.3113 60.8599L43.3113 60.7174Z" fill="white"/>
<path d="M42.7263 61.1149L41.5938 61.1149L41.5937 61.2574L42.7263 61.2574L42.7263 61.1149Z" fill="white"/>
<path d="M41.1216 61.4524L38.1816 61.4524L38.1816 64.3924L41.1216 64.3924L41.1216 61.4524Z" fill="#E2791D"/>
<path d="M42.607 64.3474L39.667 64.3474L39.667 66.8824L42.607 66.8824L42.607 64.3474Z" fill="#E2791D"/>
<path d="M44.0621 61.4524L41.1221 61.4524L41.1221 64.3924L44.0621 64.3924L44.0621 61.4524Z" fill="#FCAF43"/>
<path d="M39.6441 64.3474L36.7041 64.3474L36.7041 66.8824L39.6441 66.8824L39.6441 64.3474Z" fill="#FCAF43"/>
<path d="M45.5464 64.3923L42.6064 64.3923L42.6064 66.8823L45.5464 66.8823L45.5464 64.3923Z" fill="#FCAF43"/>
<path d="M43.4988 62.4648L41.7812 62.4648L41.7812 62.6073L43.4988 62.6073L43.4988 62.4648Z" fill="white"/>
<path d="M42.9138 62.8624L41.7812 62.8624L41.7812 63.0049L42.9138 63.0049L42.9138 62.8624Z" fill="white"/>
<path d="M44.7966 65.8773L43.0791 65.8773L43.0791 66.0198L44.7966 66.0198L44.7966 65.8773Z" fill="white"/>
<path d="M44.2116 66.2749L43.0791 66.2749L43.0791 66.4174L44.2116 66.4174L44.2116 66.2749Z" fill="white"/>
<path d="M38.8864 65.8773L37.1689 65.8773L37.1689 66.0198L38.8864 66.0198L38.8864 65.8773Z" fill="white"/>
<path d="M38.3014 66.2749L37.1689 66.2749L37.1689 66.4174L38.3014 66.4174L38.3014 66.2749Z" fill="white"/>
<path d="M51.442 61.4524L48.502 61.4524L48.502 64.3924L51.442 64.3924L51.442 61.4524Z" fill="#E2791D"/>
<path d="M52.9263 64.3474L49.9863 64.3474L49.9863 66.8824L52.9263 66.8824L52.9263 64.3474Z" fill="#E2791D"/>
<path d="M54.3814 61.4524L51.4414 61.4524L51.4414 64.3924L54.3814 64.3924L54.3814 61.4524Z" fill="#FCAF43"/>
<path d="M49.9566 64.3474L47.0166 64.3474L47.0166 66.8824L49.9566 66.8824L49.9566 64.3474Z" fill="#FCAF43"/>
<path d="M55.8668 64.3923L52.9268 64.3923L52.9268 66.8823L55.8668 66.8823L55.8668 64.3923Z" fill="#FCAF43"/>
<path d="M53.8191 62.465L52.1016 62.465L52.1016 62.6075L53.8191 62.6075L53.8191 62.465Z" fill="white"/>
<path d="M53.2341 62.8623L52.1016 62.8623L52.1016 63.0048L53.2341 63.0048L53.2341 62.8623Z" fill="white"/>
<path d="M55.1091 65.8773L53.3916 65.8773L53.3916 66.0198L55.1091 66.0198L55.1091 65.8773Z" fill="white"/>
<path d="M54.5241 66.2749L53.3916 66.2749L53.3916 66.4174L54.5241 66.4174L54.5241 66.2749Z" fill="white"/>
<path d="M49.2068 65.8773L47.4893 65.8773L47.4893 66.0198L49.2068 66.0198L49.2068 65.8773Z" fill="white"/>
<path d="M48.6218 66.2749L47.4893 66.2749L47.4893 66.4174L48.6218 66.4174L48.6218 66.2749Z" fill="white"/>
</g>
</g>
<defs>
<filter id="filter0_d_246_61280" x="-3.96777" y="-2" width="99.6748" height="99.2297" filterUnits="userSpaceOnUse" color-interpolation-filters="sRGB">
<feFlood flood-opacity="0" result="BackgroundImageFix"/>
<feColorMatrix in="SourceAlpha" type="matrix" values="0 0 0 0 0 0 0 0 0 0 0 0 0 0 0 0 0 0 127 0" result="hardAlpha"/>
<feMorphology radius="1" operator="dilate" in="SourceAlpha" result="effect1_dropShadow_246_61280"/>
<feOffset dy="3"/>
<feGaussianBlur stdDeviation="2"/>
<feComposite in2="hardAlpha" operator="out"/>
<feColorMatrix type="matrix" values="0 0 0 0 0.937255 0 0 0 0 0.937255 0 0 0 0 0.952941 0 0 0 0.45 0"/>
<feBlend mode="normal" in2="BackgroundImageFix" result="effect1_dropShadow_246_61280"/>
<feBlend mode="normal" in="SourceGraphic" in2="effect1_dropShadow_246_61280" result="shape"/>
</filter>
<clipPath id="clip0_246_61280">
<rect width="48" height="48" fill="white" transform="translate(21.8691 20.6149)"/>
</clipPath>
</defs>
</svg>
