<svg width="91" height="92" viewBox="0 0 91 92" fill="none" xmlns="http://www.w3.org/2000/svg">
<g filter="url(#filter0_d_246_61348)">
<rect x="1" y="25.4224" width="68.7865" height="67.9577" rx="16" transform="rotate(-21.69 1 25.4224)" fill="white"/>
<rect x="1.64939" y="25.7022" width="67.7865" height="66.9577" rx="15.5" transform="rotate(-21.69 1.64939 25.7022)" stroke="#EAF4EC" stroke-opacity="0.7"/>
<g clip-path="url(#clip0_246_61348)">
<path d="M50.35 50.75C49.9 53.3 47.8 55.25 45.25 55.25C42.55 55.25 40.45 53.3 40.15 50.75L31.75 53.6C28.6 54.5 26.5 57.5 26.5 60.65V67.25H64V60.65C64 57.35 61.9 54.5 58.9 53.6L50.35 50.75Z" fill="#01A6FF"/>
<path d="M44.35 50.6001H40L31.6 53.4501C28.9 54.2001 26.5 57.2001 26.5 60.5001V67.2501H29.5V60.6501C29.5 58.5501 31 56.6001 33.1 55.8501L36.55 54.6501C37.9 54.2001 39.4 54.5001 40.6 55.2501C40.9 55.4001 41.2 55.7001 41.5 55.8501C42.4 56.4501 43.6 56.4501 44.65 55.8501C46.15 54.9501 48.4 53.3001 48.4 51.5001V50.6001H44.35Z" fill="#006EF4"/>
<path d="M40 44.75V50C40 52.85 42.4 55.25 45.25 55.25C48.1 55.25 50.5 52.85 50.5 50V44.75H40Z" fill="#F0C9AE"/>
<path d="M45.25 49.25C47.2 49.25 49 48.65 50.5 47.75V44.75H40V50C40 52.85 42.4 55.25 45.25 55.25C45.7 55.25 46.3 55.1 46.75 54.95C44.65 54.35 43 52.4 43 50V48.95C43.75 49.1 44.5 49.25 45.25 49.25Z" fill="#E2B698"/>
<path d="M64 67.25V60.65C64 59.3 63.55 57.95 62.95 56.75C58.45 57.35 55 61.1 55 65.75V67.25H64ZM26.5 67.25V60.65C26.5 59.3 26.95 57.95 27.55 56.75C32.05 57.35 35.5 61.1 35.5 65.75V67.25H26.5Z" fill="#006EF4"/>
<path d="M29.5 60.6499C29.5 59.5999 29.95 58.5499 30.55 57.7999C29.65 57.3499 28.6 57.0499 27.55 56.8999C26.95 57.9499 26.5 59.2999 26.5 60.6499V67.2499H29.5V60.6499Z" fill="#014CB1"/>
<path d="M55 26.75V38C55 43.4 50.65 47.75 45.25 47.75C39.85 47.75 35.5 43.4 35.5 38V26.75" fill="#F0C9AE"/>
<path d="M39.9991 23.75C39.9991 22.85 39.3991 22.25 38.4991 22.25H38.1991C35.1991 22.25 33.0991 24.95 33.8491 27.8L35.4991 34.25H36.2491C37.1491 34.25 37.7491 33.65 37.7491 32.75V29.75C37.7491 28.85 38.3491 28.25 39.2491 28.25H51.2491C52.1491 28.25 52.7491 28.85 52.7491 29.75V32.75C52.7491 33.65 53.3491 34.25 54.2491 34.25H54.9991L56.3491 28.1C57.2491 24.35 54.3991 20.75 50.4991 20.75H42.9991C41.3491 20.75 39.9991 22.1 39.9991 23.75Z" fill="#8A6845"/>
<path d="M36.8497 27.8001C36.2497 25.5501 37.4497 23.4501 39.3997 22.5501C39.0997 22.2501 38.7997 22.1001 38.3497 22.1001H38.0497C35.0497 22.1001 32.9497 24.8001 33.6997 27.6501L35.4997 34.2501H36.2497C37.1497 34.2501 37.7497 33.6501 37.7497 32.7501V31.2501L36.8497 27.8001ZM55.7497 29.7501C55.7497 28.8501 55.1497 28.2501 54.2497 28.2501H51.2497C52.1497 28.2501 52.7497 28.8501 52.7497 29.7501V32.7501C52.7497 33.6501 53.3497 34.2501 54.2497 34.2501H54.9997L55.7497 30.9501V29.7501Z" fill="#745539"/>
<path d="M54.25 34.25C53.35 34.25 52.75 33.65 52.75 32.75V29.75C52.75 28.85 52.15 28.25 51.25 28.25H39.25C38.35 28.25 37.75 28.85 37.75 29.75V32.75C37.75 33.65 37.15 34.25 36.25 34.25H35.5V38C35.5 43.4 39.85 47.75 45.25 47.75C50.65 47.75 55 43.4 55 38V34.25H54.25Z" fill="#F0C9AE"/>
<path d="M40 46.25C38.5 43.85 37.75 41.15 37.75 38.3V36.5C37.75 36.05 38.05 35.75 38.5 35.75H39.25C40.15 35.75 40.75 35 40.75 34.25V32C40.75 31.1 41.35 30.5 42.25 30.5H51.25C52.15 30.5 52.75 31.1 52.75 32V29.75C52.75 28.85 52.15 28.25 51.25 28.25H39.25C38.35 28.25 37.75 28.85 37.75 29.75V32.75C37.75 33.65 37.15 34.25 36.25 34.25H35.5V38C35.5 41.45 37.3 44.45 40 46.25Z" fill="#E2B698"/>
<path d="M35.5 38.75H34C33.1 38.75 32.5 38.15 32.5 37.25V35.75C32.5 34.85 33.1 34.25 34 34.25H35.5V38.75Z" fill="#607D95"/>
<path d="M52.75 44H48.25C47.8 44 47.5 43.7 47.5 43.25C47.5 42.8 47.8 42.5 48.25 42.5H52.75C54.85 42.5 56.5 40.85 56.5 38.75V35.75C56.5 35.3 56.8 35 57.25 35C57.7 35 58 35.3 58 35.75V38.75C58 41.6 55.6 44 52.75 44Z" fill="#004463"/>
<path d="M58 38.75H55V34.25H56.5C57.4 34.25 58 34.85 58 35.75V38.75ZM48.25 44.75H46.75C45.85 44.75 45.25 44.15 45.25 43.25C45.25 42.35 45.85 41.75 46.75 41.75H48.25C49.15 41.75 49.75 42.35 49.75 43.25C49.75 44.15 49.15 44.75 48.25 44.75Z" fill="#607D95"/>
</g>
</g>
<defs>
<filter id="filter0_d_246_61348" x="-4" y="-2" width="99.0322" height="98.5684" filterUnits="userSpaceOnUse" color-interpolation-filters="sRGB">
<feFlood flood-opacity="0" result="BackgroundImageFix"/>
<feColorMatrix in="SourceAlpha" type="matrix" values="0 0 0 0 0 0 0 0 0 0 0 0 0 0 0 0 0 0 127 0" result="hardAlpha"/>
<feMorphology radius="1" operator="dilate" in="SourceAlpha" result="effect1_dropShadow_246_61348"/>
<feOffset dy="3"/>
<feGaussianBlur stdDeviation="2"/>
<feComposite in2="hardAlpha" operator="out"/>
<feColorMatrix type="matrix" values="0 0 0 0 0.937255 0 0 0 0 0.937255 0 0 0 0 0.952941 0 0 0 0.45 0"/>
<feBlend mode="normal" in2="BackgroundImageFix" result="effect1_dropShadow_246_61348"/>
<feBlend mode="normal" in="SourceGraphic" in2="effect1_dropShadow_246_61348" result="shape"/>
</filter>
<clipPath id="clip0_246_61348">
<rect width="48" height="48" fill="white" transform="translate(22 20)"/>
</clipPath>
</defs>
</svg>
