<svg width="91" height="93" viewBox="0 0 91 93" fill="none" xmlns="http://www.w3.org/2000/svg">
<g filter="url(#filter0_d_246_61370)">
<g clip-path="url(#clip0_246_61370)">
<rect x="26.8789" width="68.7865" height="67.9577" rx="16" transform="rotate(22.6861 26.8789 0)" fill="white"/>
<path d="M52.5023 60.5211C53.9608 60.0651 55.2694 59.5993 56.8436 58.7153C58.4672 57.8034 65.6796 53.4639 66.6175 45.9535C66.8632 43.8951 66.6593 41.8079 66.0198 39.836C65.7299 38.9861 65.1286 37.279 63.6109 35.5908C61.753 33.5229 59.6331 32.7215 58.39 32.2682C55.7747 31.3142 53.5811 31.3644 52.5364 31.3985C51.4091 31.4353 49.4194 31.5179 47.1576 32.506C45.6821 33.1505 44.7649 33.8855 43.4132 34.9841C41.2717 36.7262 40.9899 37.4514 37.2437 41.0486C36.2151 42.0359 35.3697 42.814 34.079 43.5805C33.1842 44.1118 32.4608 44.4089 31.1262 44.951C27.8458 46.2838 26.9118 46.5536 25.8384 47.304C23.7508 48.7642 23.886 50.3567 23.7962 50.6996C23.5628 51.5764 23.5088 52.4912 23.6374 53.3894C23.9111 55.1907 24.8813 56.3683 25.4836 57.0809C26.3102 58.0502 27.3119 58.8552 28.4364 59.4539C29.217 59.8658 30.0255 60.2224 30.8561 60.5211L52.5023 60.5211Z" fill="#EFEDEF"/>
<path d="M57.1328 59.2481L57.0888 59.1698C59.2339 57.9647 66.306 53.4468 67.2466 45.9102C67.5003 43.7729 67.2886 41.6061 66.6261 39.5584C66.3589 38.7747 65.7331 36.9394 64.1267 35.152C62.1594 32.9628 59.9133 32.1436 58.7066 31.7035C56.7597 31.0027 54.6929 30.6955 52.6263 30.7998C51.5111 30.8361 49.4355 30.9037 47.0398 31.9497L47.0039 31.8675C49.4154 30.8145 51.582 30.744 52.6233 30.7102C54.7014 30.6052 56.7796 30.9142 58.7373 31.6192C59.9513 32.062 62.2111 32.8862 64.1935 35.092C65.8122 36.8931 66.4421 38.7405 66.7111 39.5294C67.3778 41.5901 67.5909 43.7706 67.3357 45.9213C66.3899 53.4997 59.2871 58.0377 57.1328 59.2481Z" fill="#EFEDEF"/>
<path d="M45.9078 28.6189L45.0209 28.6189C44.7542 28.6189 44.5381 28.835 44.5381 29.1017L44.5381 29.9886C44.5381 30.2552 44.7542 30.4714 45.0209 30.4714L45.9078 30.4714C46.1744 30.4714 46.3906 30.2552 46.3906 29.9886L46.3906 29.1017C46.3906 28.835 46.1744 28.6189 45.9078 28.6189Z" fill="#DC8758"/>
<path d="M40.4338 60.6105L39.6836 60.6105L42.7244 46.9426L44.2562 47.355L40.4338 60.6105Z" fill="#DC8758"/>
<path d="M50.5861 60.6105L51.3363 60.6105L48.2956 46.9426L46.7637 47.355L50.5861 60.6105Z" fill="#DC8758"/>
<path d="M57.1301 29.7122L33.8827 29.7122C33.708 29.7122 33.5664 29.8538 33.5664 30.0284L33.5664 48.5038C33.5664 48.6784 33.708 48.8201 33.8827 48.8201L57.1301 48.8201C57.3048 48.8201 57.4464 48.6785 57.4464 48.5038L57.4464 30.0284C57.4464 29.8538 57.3048 29.7122 57.1301 29.7122Z" fill="#FFE3CB"/>
<path d="M49.5781 48.009L41.434 48.009C41.2962 48.009 41.1846 48.1207 41.1846 48.2585L41.1846 48.9395C41.1846 49.0772 41.2962 49.1889 41.434 49.1889L49.5781 49.1889C49.7159 49.1889 49.8275 49.0772 49.8275 48.9395L49.8275 48.2585C49.8275 48.1207 49.7159 48.009 49.5781 48.009Z" fill="#DC8758"/>
<path d="M63.0351 39.7311C63.0351 39.7311 62.7136 39.5136 62.5073 38.6826C62.3011 37.8517 62.2274 37.1758 62.5026 37.7129L62.7056 38.1256C62.7056 38.1256 62.8334 37.4493 62.8743 37.0396C62.8834 36.9308 62.9272 36.8278 62.9993 36.7458C63.0713 36.6637 63.1678 36.607 63.2746 36.584C63.4755 36.5451 63.6126 36.6354 63.657 37.1151C63.7234 37.8326 63.738 38.2135 63.7026 38.3955C63.6903 38.4585 63.5023 39.1296 63.5023 39.1296L63.0351 39.7311Z" fill="#F9977A"/>
<path d="M62.6603 38.5402C62.6723 38.5069 62.6816 38.4727 62.688 38.4379C62.6949 38.4038 62.7001 38.3695 62.7035 38.335C62.7065 38.3005 62.7095 38.2661 62.7092 38.2313C62.7101 38.1961 62.7086 38.1608 62.7047 38.1257C62.689 38.1577 62.677 38.1914 62.6692 38.2262C62.6607 38.2602 62.6548 38.2948 62.6514 38.3297C62.6478 38.3646 62.6467 38.3996 62.648 38.4345C62.6485 38.4701 62.6526 38.5055 62.6603 38.5402ZM63.0278 37.7247C63.0475 37.6411 63.0623 37.5564 63.072 37.471C63.0832 37.3859 63.0889 37.3002 63.092 37.2144C63.0951 37.1284 63.0931 37.0423 63.086 36.9565C63.0802 36.8704 63.065 36.7852 63.0407 36.7024C63.0496 36.8739 63.0451 37.0426 63.0396 37.2128L63.0319 37.468C63.0297 37.5533 63.0271 37.6386 63.0278 37.7247ZM63.2798 37.6939C63.3063 37.6036 63.3266 37.5115 63.3407 37.4184C63.3558 37.3254 63.3654 37.2315 63.3694 37.1373C63.3741 37.0427 63.3704 36.9479 63.3583 36.8539C63.3498 36.7589 63.3209 36.6669 63.2737 36.584C63.3016 36.6726 63.3166 36.7647 63.3181 36.8576C63.3215 36.9499 63.3219 37.0425 63.317 37.1352C63.3101 37.3208 63.2926 37.5062 63.2798 37.6939ZM63.5072 37.609C63.5314 37.534 63.5497 37.4572 63.5619 37.3794C63.5751 37.3017 63.5836 37.2233 63.5876 37.1447C63.5914 37.0658 63.5899 36.9867 63.5831 36.9081C63.5764 36.8293 63.5617 36.7515 63.5392 36.6757C63.5411 36.7547 63.5437 36.8321 63.5428 36.9097C63.5406 36.9873 63.5396 37.0647 63.5352 37.1421L63.5221 37.3748L63.5072 37.609Z" fill="#DD765E"/>
<path d="M64.4324 58.1128L64.7569 59.8012C64.7569 59.8012 63.7059 60.2044 63.0815 59.1728L62.9326 58.2358L64.4324 58.1128Z" fill="#F9977A"/>
<path d="M64.5825 58.9072C64.5825 58.9072 65.3485 59.8641 64.9239 60.428C64.9017 60.4572 64.8729 60.4808 64.8399 60.4969C64.807 60.513 64.7707 60.5212 64.734 60.5208L60.9363 60.5002C60.9189 60.5 60.9017 60.4962 60.8859 60.489C60.87 60.4818 60.8559 60.4713 60.8444 60.4582C60.8329 60.4452 60.8243 60.4298 60.8191 60.4132C60.8139 60.3966 60.8123 60.3791 60.8143 60.3618C60.8361 60.1651 60.928 59.8093 61.2995 59.6459C61.8277 59.4136 62.2024 59.8322 63.0833 59.0746C63.0833 59.0746 64.225 59.4027 64.5825 58.9072Z" fill="#935B50"/>
<path d="M59.8001 58.0535L59.5686 59.9305C59.5686 59.9305 58.5855 60.1062 58.1426 58.9847L58.3819 58.0164L59.8001 58.0535Z" fill="#F9977A"/>
<path d="M59.7046 58.9072C59.7046 58.9072 60.4706 59.8641 60.046 60.428C60.0237 60.4572 59.995 60.4808 59.962 60.4969C59.929 60.513 59.8928 60.5212 59.8561 60.5208L56.0583 60.5002C56.0409 60.5 56.0238 60.4962 56.0079 60.489C55.9921 60.4818 55.978 60.4713 55.9665 60.4582C55.955 60.4452 55.9463 60.4298 55.9412 60.4132C55.936 60.3966 55.9344 60.3791 55.9364 60.3618C55.9582 60.1651 56.05 59.8093 56.4216 59.6459C56.9498 59.4136 57.26 59.7422 58.1408 58.9847C58.1408 58.9847 59.3471 59.4027 59.7046 58.9072Z" fill="#935B50"/>
<path d="M63.0681 39.082L63.5947 38.9623L64.294 41.4688C64.5254 42.2986 63.4515 42.8471 62.914 42.174C62.7001 41.9063 62.5498 41.6816 62.5176 41.5474L62.3979 42.9596L62.7091 45.1378L58.1852 45.1378L58.1852 40.6617L57.1118 42.0725C56.6054 42.6724 55.6719 42.6724 55.2171 41.6192L54.499 40.0394L55.5043 39.4171L56.2224 40.566L57.6758 38.3687C57.8471 38.1097 58.0799 37.8971 58.3534 37.7501C58.627 37.6031 58.9327 37.5261 59.2432 37.5261L61.4344 37.5261C61.6342 37.5261 61.8307 37.5767 62.0056 37.6732C62.1805 37.7697 62.3282 37.9089 62.4348 38.0779L63.0681 39.082Z" fill="#F73C4F"/>
<path d="M64.1425 40.9257C64.0648 40.7651 63.9808 40.6082 63.8959 40.4519C63.8116 40.2952 63.7228 40.1411 63.634 39.987C63.5438 39.8337 63.4535 39.6805 63.3588 39.5299C63.2646 39.3789 63.1696 39.2285 63.0681 39.0818C63.1457 39.2424 63.2297 39.3993 63.3146 39.5556C63.3989 39.7123 63.4877 39.8664 63.5766 40.0205C63.6668 40.1737 63.7571 40.3269 63.8519 40.4775C63.946 40.6285 64.0411 40.7789 64.1425 40.9257ZM62.5176 41.5472C62.5313 41.3418 62.5377 41.1363 62.543 40.9309C62.5485 40.7254 62.548 40.52 62.5508 40.3145C62.5482 40.1091 62.5485 39.9036 62.5432 39.6982C62.5378 39.4927 62.5314 39.2873 62.5176 39.0818C62.5038 39.2873 62.4974 39.4927 62.492 39.6982C62.4867 39.9036 62.487 40.1091 62.4844 40.3145C62.4872 40.52 62.4867 40.7254 62.4921 40.9309C62.4975 41.1363 62.5039 41.3418 62.5176 41.5472ZM58.1852 40.6616C58.3284 40.4491 58.4656 40.2331 58.6017 40.0163C58.7383 39.7999 58.8693 39.5801 59.0034 39.3621L59.005 39.3595L59.0059 39.357C59.0494 39.2301 59.0789 39.0988 59.0939 38.9654C59.1104 38.8325 59.11 38.698 59.0925 38.5652C59.0731 38.4325 59.0314 38.304 58.9691 38.1852C58.9037 38.0693 58.8163 37.9673 58.7118 37.885C58.8061 37.9755 58.8833 38.0823 58.9397 38.2001C58.9942 38.3174 59.0285 38.4429 59.0413 38.5716C59.0529 38.7002 59.0503 38.8298 59.0336 38.9579C59.0169 39.0858 58.9869 39.2116 58.9442 39.3332L58.9467 39.3281C58.8175 39.549 58.6852 39.768 58.5585 39.9904C58.4313 40.2125 58.3053 40.4352 58.1852 40.6616ZM62.2304 44.4674C62.0932 44.5153 61.9545 44.5574 61.8137 44.5914C61.7437 44.6099 61.6729 44.6248 61.6026 44.6416L61.3897 44.6825C61.1054 44.7329 60.8173 44.7593 60.5286 44.7615C60.3844 44.7677 60.2406 44.7574 60.0965 44.7511C60.0247 44.7447 59.9533 44.7349 59.8816 44.727L59.7742 44.7142L59.6678 44.6951C59.597 44.6818 59.5254 44.6709 59.4549 44.6556L59.2454 44.6003C59.2105 44.5909 59.1747 44.5838 59.1404 44.5727L59.0378 44.5373L58.8314 44.4674C59.0948 44.5932 59.3724 44.6866 59.6583 44.7453L59.7653 44.7692C59.8013 44.7751 59.8377 44.779 59.8739 44.784C59.9464 44.793 60.0187 44.8039 60.0914 44.8114C60.2373 44.8198 60.3832 44.8324 60.5295 44.8279C60.8217 44.8232 61.1129 44.7913 61.3993 44.7325C61.6851 44.6746 61.9638 44.5857 62.2304 44.4674ZM55.624 40.9257C55.6908 40.804 55.7746 40.6926 55.8729 40.5947C55.9187 40.5498 55.9775 40.5206 56.041 40.5112C56.0712 40.5119 56.1009 40.5192 56.128 40.5324C56.1552 40.5456 56.1792 40.5645 56.1984 40.5878L56.2003 40.542C56.1368 40.608 56.0842 40.6837 56.0447 40.7663C56.005 40.8469 55.9743 40.9316 55.9531 41.0189C55.9342 41.1059 55.9228 41.1944 55.9191 41.2833C55.9168 41.3716 55.9222 41.4599 55.9352 41.5472L55.9405 41.4159C55.9451 41.3725 55.9471 41.329 55.9539 41.2862C55.9641 41.2004 55.9817 41.1158 56.0065 41.0331C56.031 40.9512 56.063 40.8717 56.1021 40.7957C56.14 40.7209 56.1879 40.6516 56.2446 40.5897L56.2676 40.5656L56.2464 40.5439C56.2207 40.5136 56.1884 40.4896 56.1519 40.4736C56.1155 40.4576 56.0759 40.4501 56.0362 40.4517C55.9601 40.4641 55.8908 40.5028 55.8403 40.561C55.7451 40.6672 55.6716 40.7911 55.624 40.9257Z" fill="#B02336"/>
<path d="M62.5418 45.1379L64.6131 58.3181C64.6168 58.3422 64.6156 58.3669 64.6094 58.3905C64.6033 58.4142 64.5924 58.4363 64.5773 58.4556C64.5623 58.4749 64.5436 58.4909 64.5221 58.5026C64.5007 58.5144 64.4772 58.5217 64.4528 58.524L63.056 58.6579C63.0117 58.6622 62.9675 58.6499 62.9318 58.6234C62.8961 58.5969 62.8715 58.5581 62.8628 58.5145L60.579 47.3161L59.9145 58.3973C59.9118 58.4429 59.8917 58.4858 59.8584 58.5172C59.8251 58.5486 59.7811 58.566 59.7353 58.566L58.2205 58.566C58.1966 58.566 58.173 58.5613 58.151 58.552C58.129 58.5428 58.109 58.5292 58.0923 58.5122C58.0756 58.4951 58.0625 58.4749 58.0537 58.4527C58.0449 58.4305 58.0406 58.4068 58.0411 58.383L58.3051 45.1379L62.5418 45.1379Z" fill="#8B9D36"/>
<path d="M63.0204 51.9357C62.9181 51.9612 62.814 51.9795 62.7091 51.9904C62.605 52.0021 62.5001 52.004 62.3957 51.9961C62.2918 51.9879 62.1895 51.9657 62.0915 51.9301C61.994 51.891 61.9035 51.8363 61.8236 51.7682C61.8952 51.8482 61.9827 51.9125 62.0805 51.9568C62.1801 51.9979 62.2853 52.0237 62.3926 52.0335C62.6065 52.0474 62.8209 52.0141 63.0204 51.9357ZM63.188 52.5341C63.0665 52.5305 62.9456 52.5204 62.8254 52.508C62.7053 52.4964 62.5859 52.4776 62.468 52.4518C62.3499 52.4293 62.2344 52.3943 62.1237 52.3474C62.0115 52.3027 61.9095 52.236 61.8236 52.1511C61.9007 52.247 61.9995 52.3233 62.1117 52.3738C62.2229 52.4257 62.3399 52.4642 62.4602 52.4886C62.6995 52.5375 62.9444 52.5528 63.188 52.5341ZM59.8848 52.0192C59.7956 52.0339 59.7056 52.0433 59.6152 52.0474C59.5255 52.0519 59.4356 52.0499 59.3462 52.0413C59.1666 52.0271 58.9916 51.9769 58.8316 51.8937C58.9054 51.9482 58.987 51.9912 59.0737 52.0212C59.1609 52.0507 59.2512 52.07 59.3428 52.0787C59.5256 52.0953 59.7099 52.0751 59.8848 52.0192ZM59.8848 52.5352C59.7818 52.5641 59.6766 52.5844 59.5702 52.5959C59.4644 52.6086 59.3579 52.614 59.2514 52.6122C59.1448 52.6115 59.0384 52.6041 58.9327 52.5898C58.8266 52.5777 58.7219 52.5559 58.6162 52.5352C58.7177 52.5717 58.8222 52.5995 58.9284 52.6185C59.0349 52.6373 59.1428 52.6477 59.251 52.6498C59.3593 52.6502 59.4674 52.6418 59.5743 52.6245C59.6812 52.608 59.7855 52.578 59.8848 52.5352ZM61.0816 46.9331C60.9583 47.0297 60.8296 47.1189 60.6995 47.2049C60.5696 47.2914 60.4352 47.3708 60.2969 47.4428C60.1596 47.5161 60.0167 47.5784 59.8695 47.6293C59.7219 47.6797 59.5684 47.7112 59.4128 47.723C59.5704 47.7252 59.7275 47.7029 59.8783 47.6569C60.0287 47.6096 60.1746 47.5491 60.3143 47.4761C60.4532 47.4022 60.5872 47.3196 60.7157 47.2288C60.8442 47.1386 60.9665 47.0399 61.0816 46.9331ZM61.9673 47.723C61.7881 47.6941 61.6095 47.6689 61.434 47.6293C61.346 47.6115 61.2593 47.5883 61.1742 47.56C61.0877 47.5352 61.0073 47.493 60.938 47.4357C60.999 47.5048 61.0769 47.5569 61.164 47.5871C61.2492 47.6201 61.3367 47.6465 61.426 47.666C61.6039 47.7038 61.7853 47.7229 61.9673 47.723ZM60.2472 47.5794C60.2306 47.6893 60.1807 47.7914 60.1041 47.872C60.031 47.9546 59.9462 48.0261 59.8524 48.0841C59.8069 48.1153 59.7578 48.1414 59.71 48.1692C59.6601 48.1934 59.6108 48.219 59.5603 48.2421C59.4591 48.2886 59.3547 48.3276 59.2505 48.3693C59.3048 48.3557 59.3586 48.3398 59.4129 48.3251C59.4665 48.3086 59.5186 48.2874 59.5717 48.2687C59.6246 48.2495 59.6743 48.2225 59.7258 48.1996C59.7751 48.1722 59.8257 48.1467 59.8729 48.1155C59.9689 48.0545 60.0545 47.9784 60.1264 47.8902C60.2016 47.8038 60.2444 47.6939 60.2472 47.5794Z" fill="#5E7C24"/>
<path d="M55.3779 39.4955L54.8503 38.1485L54.0184 37.0392C54.0082 37.0257 53.9954 37.0142 53.9808 37.0056C53.9662 36.997 53.9501 36.9914 53.9333 36.989C53.9165 36.9867 53.8994 36.9877 53.883 36.992C53.8666 36.9963 53.8512 37.0037 53.8377 37.014C53.8116 37.0338 53.7941 37.0629 53.7887 37.0952C53.7833 37.1275 53.7904 37.1607 53.8087 37.1879L54.2758 37.8852C54.2758 37.8852 53.6267 37.4274 53.5805 38.2253C53.5773 38.2793 53.5938 38.3325 53.627 38.3752C53.6601 38.4179 53.7076 38.4471 53.7606 38.4574C53.8382 38.4715 53.9127 38.4992 53.9806 38.5394C53.9806 38.5394 53.9008 39.2974 54.3955 39.3213L54.6028 39.9753L55.3779 39.4955Z" fill="#F9977A"/>
<path d="M54.9703 38.4558C54.9703 38.4558 54.8945 37.9057 54.9459 37.7651C54.9586 37.7266 54.9559 37.6848 54.9384 37.6483C54.8843 37.5272 54.7715 37.3764 54.6768 37.9177L54.8501 38.1487L54.9703 38.4558ZM61.1243 37.5653L61.1842 34.3938L58.8265 34.3938L58.8265 36.2789C58.8265 36.4773 58.9053 36.6676 59.0456 36.8079C59.1859 36.9482 59.3762 37.027 59.5746 37.027L59.6283 37.027L59.6164 37.5653L61.1243 37.5653Z" fill="#F9977A"/>
<path d="M59.6281 37.0269L60.0052 37.0269L59.6162 37.5652L59.6281 37.0269Z" fill="#DD765E"/>
<path d="M61.1335 37.0267C61.1335 37.0267 59.9505 37.218 59.5676 35.8417C59.5676 35.8417 60.0941 35.5545 59.5676 35.2313C59.5676 35.2313 59.2803 35.1715 59.2684 35.351L58.8255 34.3936C58.8255 34.3936 58.3708 34.5013 58.3947 33.9627C58.3947 33.9627 57.9279 33.6874 58.5024 33.4481C58.5024 33.4481 58.4785 32.7779 59.1128 33.2686C59.1128 33.2686 59.5436 32.2752 60.6447 33.6875C60.6447 33.6875 62.4399 33.843 61.5901 35.339L61.1335 37.0267Z" fill="#1E1D22"/>
<path d="M27.2071 58.1655C27.123 57.6705 27.0746 57.1702 27.0622 56.6683C27.0477 56.1659 27.0675 55.6631 27.1215 55.1634C27.1777 54.6633 27.2807 54.1697 27.4292 53.6889C27.5072 53.4498 27.5989 53.2154 27.7039 52.987C27.8137 52.7612 27.9393 52.5434 28.0797 52.3352C27.8173 52.7618 27.6128 53.2215 27.4717 53.7021C27.4027 53.9421 27.3404 54.1841 27.292 54.4292C27.2447 54.6746 27.2071 54.9215 27.1789 55.17C27.123 55.6671 27.0989 56.1672 27.1065 56.6674C27.1088 56.9176 27.1185 57.1676 27.1355 57.4176C27.1513 57.6674 27.1725 57.9172 27.2071 58.1655Z" fill="#50661A"/>
<path d="M27.2066 54.4107C27.2066 54.4107 24.5695 54.7428 23.4219 53.6112C22.5702 52.7715 23.3803 51.3261 24.5475 51.5872C25.3289 51.7621 26.2927 52.4566 27.2066 54.4107Z" fill="#5E7C24"/>
<path d="M27.2073 54.4106C26.8372 54.2979 26.4728 54.166 26.1141 54.0199C25.7556 53.8734 25.4042 53.7106 25.0597 53.5315C24.8884 53.4407 24.7203 53.3439 24.5554 53.2413C24.3896 53.1402 24.2297 53.0296 24.0766 52.9102C23.9225 52.7915 23.7784 52.6604 23.6457 52.5183C23.5137 52.3754 23.4066 52.2112 23.3291 52.0327C23.4145 52.206 23.5286 52.3636 23.6664 52.499C23.8018 52.6358 23.948 52.7615 24.1035 52.8748C24.4149 53.1021 24.7437 53.3045 25.0867 53.4804C25.4264 53.6632 25.7776 53.8243 26.1313 53.9791C26.3083 54.0564 26.4866 54.1306 26.6663 54.2019C26.8452 54.2748 27.0253 54.3452 27.2073 54.4106Z" fill="#50661A"/>
<path d="M24.3475 53.0771L24.3501 52.6881C24.3494 52.5587 24.3501 52.4296 24.3428 52.301C24.3387 52.1725 24.3273 52.0445 24.3086 51.9173L24.2907 51.8231C24.2844 51.7917 24.2733 51.7619 24.2651 51.731C24.2556 51.7005 24.244 51.6707 24.2303 51.6419C24.2147 51.6137 24.1974 51.5866 24.1785 51.5605C24.2704 51.6564 24.331 51.7778 24.3523 51.9088C24.3781 52.0373 24.3942 52.1676 24.4005 52.2985C24.4031 52.4291 24.4032 52.5595 24.3944 52.6895C24.3865 52.8195 24.3708 52.949 24.3475 53.0771ZM23.1064 53.0771C23.2615 53.0501 23.4144 53.0279 23.5638 52.9935C23.6379 52.9767 23.7104 52.9539 23.7807 52.9252C23.8527 52.8998 23.9129 52.849 23.9501 52.7824C23.9406 52.8221 23.9223 52.8592 23.8966 52.8908C23.8708 52.9225 23.8382 52.948 23.8013 52.9653C23.7307 53.0035 23.6552 53.0319 23.577 53.0497C23.4227 53.0849 23.2637 53.0941 23.1064 53.0771ZM23.5832 53.7528C23.7899 53.7263 23.9945 53.6852 24.1954 53.6297C24.2939 53.6022 24.3884 53.5617 24.4762 53.5092C24.5661 53.4586 24.633 53.3752 24.6631 53.2765C24.6581 53.3306 24.6411 53.383 24.6132 53.4297C24.5853 53.4764 24.5473 53.5162 24.502 53.5463C24.4141 53.6089 24.316 53.6559 24.2121 53.685C24.008 53.7442 23.7952 53.7671 23.5832 53.7528ZM25.0577 53.4983C25.1017 53.3694 25.1421 53.2401 25.1788 53.1102C25.2146 52.98 25.2498 52.8498 25.2731 52.7172C25.3315 52.4538 25.3437 52.1822 25.3092 51.9145C25.3501 52.0455 25.3709 52.182 25.3708 52.3193C25.3687 52.4565 25.355 52.5933 25.3298 52.7283C25.302 52.8622 25.2657 52.9943 25.2211 53.1236C25.1769 53.2527 25.1222 53.378 25.0577 53.4983ZM24.6631 54.2614C24.7471 54.2393 24.8285 54.2117 24.9082 54.1823C24.9874 54.1532 25.0637 54.117 25.1363 54.0739C25.2079 54.0316 25.2729 53.9789 25.329 53.9175C25.3826 53.852 25.4234 53.777 25.4495 53.6964C25.4444 53.7855 25.4151 53.8716 25.3647 53.9452C25.3108 54.0171 25.2433 54.0777 25.166 54.1235C25.0898 54.1685 25.0077 54.2027 24.922 54.225C24.8377 54.2486 24.7506 54.2609 24.6631 54.2614ZM25.9993 52.5082C26.0569 52.6166 26.0987 52.7328 26.1233 52.8531C26.1483 52.9741 26.158 53.0978 26.1523 53.2213C26.1453 53.3451 26.1192 53.4671 26.0749 53.583C26.031 53.698 25.9677 53.8047 25.888 53.8985C25.9482 53.7941 25.9968 53.6834 26.0329 53.5685C26.0692 53.455 26.09 53.3371 26.0946 53.218C26.1022 53.0987 26.0972 52.979 26.0797 52.8608C26.0628 52.7412 26.0359 52.6233 25.9993 52.5082ZM25.8288 54.4106C25.9246 54.3625 26.0188 54.3213 26.1092 54.2729C26.2012 54.2266 26.2863 54.1678 26.3622 54.0981C26.3153 54.1972 26.2354 54.277 26.1363 54.3239C26.0414 54.3749 25.9364 54.4045 25.8288 54.4106ZM26.6636 53.398C26.7159 53.5288 26.7465 53.6673 26.7542 53.8079C26.759 53.8788 26.7555 53.95 26.744 54.0201C26.7349 54.0913 26.7072 54.1589 26.6636 54.216C26.686 54.1513 26.698 54.0835 26.6992 54.015C26.7021 53.9471 26.7012 53.879 26.6965 53.8112C26.6894 53.6746 26.6729 53.5382 26.6636 53.398Z" fill="#50661A"/>
<path d="M27.1106 54.3973C27.1106 54.3973 25.056 52.7112 25.0883 51.0998C25.1122 49.904 26.7186 49.4982 27.3317 50.5251C27.7422 51.2126 27.9007 52.39 27.1106 54.3973Z" fill="#C4CE6E"/>
<path d="M27.1114 54.3974C26.9335 54.0532 26.7734 53.7 26.6318 53.3394C26.4891 52.979 26.3642 52.6118 26.2574 52.2379C26.2058 52.0507 26.1608 51.8617 26.1224 51.671C26.0818 51.4806 26.0528 51.2879 26.0355 51.094C26.0171 50.8998 26.0146 50.7044 26.028 50.5099C26.0423 50.3152 26.0906 50.1245 26.1707 49.9465C26.1075 50.1286 26.0742 50.3198 26.072 50.5125C26.0673 50.7044 26.078 50.8964 26.1041 51.0866C26.155 51.4679 26.2351 51.8448 26.3437 52.2139C26.4432 52.586 26.5678 52.9513 26.6961 53.3152C26.7603 53.4972 26.8276 53.6781 26.8981 53.858C26.9656 54.0391 27.0386 54.218 27.1114 54.3974Z" fill="#8B9D36"/>
<path d="M26.1128 51.4042C26.2951 51.2167 26.4827 51.0401 26.6616 50.8558C26.7508 50.7637 26.8369 50.6693 26.9177 50.5709C26.9569 50.5211 26.9932 50.4692 27.0264 50.4152C27.0429 50.3882 27.0575 50.36 27.0701 50.3309C27.0809 50.3006 27.0901 50.2698 27.0976 50.2385C27.0974 50.3728 27.0543 50.5035 26.9746 50.6116C26.9012 50.7211 26.8179 50.8238 26.726 50.9183C26.5436 51.1062 26.3375 51.2695 26.1128 51.4042ZM25.2594 50.5031C25.3944 50.5881 25.5165 50.6808 25.6434 50.7643C25.7055 50.806 25.7703 50.8434 25.8375 50.8764C25.9033 50.9126 25.9794 50.9255 26.0535 50.913C26.0188 50.9366 25.979 50.9515 25.9374 50.9567C25.8958 50.9618 25.8536 50.9569 25.8142 50.9425C25.7361 50.9192 25.6619 50.8844 25.594 50.8393C25.4607 50.7512 25.3468 50.6368 25.2594 50.5031ZM25.0967 51.3139C25.2712 51.4344 25.4372 51.5586 25.6149 51.6599C25.7013 51.7118 25.7938 51.753 25.8902 51.7826C25.9867 51.8145 26.0916 51.8102 26.1851 51.7703C26.1435 51.8071 26.0938 51.8335 26.0401 51.8475C25.9864 51.8616 25.9302 51.8628 25.8759 51.8512C25.768 51.8323 25.6645 51.7939 25.5704 51.7378C25.4779 51.6838 25.3911 51.6206 25.3114 51.549C25.2312 51.479 25.1592 51.4001 25.0967 51.3139ZM26.2955 52.2094C26.4174 52.1476 26.5363 52.0829 26.6549 52.019C26.7726 51.9534 26.8896 51.8877 27.0021 51.8151C27.1149 51.7436 27.2238 51.6662 27.3285 51.5833C27.4327 51.498 27.5296 51.4042 27.6182 51.3028C27.5564 51.4265 27.4743 51.5389 27.3752 51.6354C27.2756 51.7311 27.1667 51.8167 27.0502 51.8908C26.8182 52.0385 26.5631 52.1462 26.2955 52.2094ZM25.4701 52.4477C25.5485 52.4877 25.625 52.5255 25.702 52.5603C25.7775 52.5953 25.8558 52.6243 25.9359 52.6469C26.0141 52.6694 26.0951 52.6813 26.1765 52.6823C26.2603 52.6782 26.3429 52.6606 26.421 52.6301C26.3558 52.6937 26.273 52.7362 26.1833 52.752C26.0925 52.7648 26 52.7584 25.9118 52.7333C25.8255 52.7086 25.7435 52.6709 25.6686 52.6216C25.5936 52.5746 25.5266 52.5158 25.4701 52.4477ZM27.6618 52.2121C27.5912 52.4518 27.4512 52.6653 27.2596 52.8257C27.2114 52.8658 27.1606 52.9026 27.1076 52.9359C27.0807 52.952 27.0521 52.9653 27.0246 52.9801C26.9973 52.9955 26.9686 53.0081 26.9388 53.0178C26.8232 53.0635 26.7001 53.0871 26.5759 53.0874C26.6911 53.0534 26.8029 53.0087 26.9099 52.954C27.0146 52.9002 27.1126 52.8341 27.2017 52.7572C27.2921 52.6808 27.3755 52.5966 27.4508 52.5054C27.5276 52.4124 27.5981 52.3145 27.6618 52.2121ZM26.1634 53.3966C26.2708 53.4223 26.3652 53.459 26.4613 53.4904C26.5576 53.5246 26.6565 53.5508 26.7571 53.569C26.7071 53.5946 26.6514 53.6069 26.5953 53.6047C26.54 53.6029 26.4852 53.593 26.4328 53.5754C26.3812 53.5577 26.332 53.5338 26.2861 53.5043C26.2395 53.4756 26.198 53.4391 26.1634 53.3966ZM27.4726 53.3063C27.4494 53.3735 27.418 53.4376 27.3789 53.4971C27.3409 53.5569 27.2974 53.6131 27.2489 53.6649C27.2001 53.7177 27.1446 53.764 27.0838 53.8024C27.0235 53.8443 26.9521 53.8674 26.8787 53.8688C26.938 53.8352 26.9928 53.794 27.0416 53.7465C27.0904 53.7008 27.138 53.6535 27.1837 53.6034C27.2776 53.5055 27.3668 53.4024 27.4726 53.3063Z" fill="#8B9D36"/>
<path d="M27.0498 57.2215C27.0498 57.2215 24.3936 57.317 23.3515 56.0876C22.5782 55.1752 23.514 53.8079 24.6532 54.1721C25.4159 54.4159 26.3139 55.1937 27.0498 57.2215Z" fill="#C4CE6E"/>
<path d="M27.05 57.2215C26.6888 57.0812 26.3351 56.9224 25.9903 56.7457C25.6448 56.5699 25.3083 56.3763 24.9807 56.1676C24.8181 56.0614 24.6594 55.9495 24.5043 55.8319C24.3479 55.716 24.1986 55.5907 24.0573 55.4568C23.9151 55.3234 23.7839 55.1786 23.6653 55.0238C23.5471 54.8684 23.4571 54.6935 23.3994 54.5071C23.4726 54.6854 23.574 54.8508 23.6999 54.9967C23.8234 55.1437 23.9585 55.2805 24.1039 55.4059C24.3944 55.6581 24.7039 55.8876 25.0295 56.0925C25.3504 56.3057 25.6855 56.497 26.0225 56.6849C26.1911 56.7789 26.3613 56.8701 26.5331 56.9583C26.7036 57.0494 26.8767 57.1352 27.05 57.2215Z" fill="#8B9D36"/>
<path d="M24.3201 55.6381C24.3327 55.3769 24.3565 55.1204 24.3687 54.8639C24.3746 54.7358 24.3767 54.6081 24.3721 54.4808C24.3686 54.4176 24.3614 54.3546 24.3506 54.2922C24.3451 54.261 24.3374 54.2302 24.3276 54.2C24.3157 54.1702 24.3021 54.141 24.2871 54.1125C24.3758 54.2134 24.43 54.3399 24.4418 54.4736C24.4592 54.6044 24.4647 54.7364 24.4583 54.8681C24.4459 55.1297 24.3994 55.3885 24.3201 55.6381ZM23.084 55.5274C23.2414 55.5017 23.3943 55.4904 23.5447 55.4691C23.6189 55.4592 23.6923 55.4444 23.7644 55.4247C23.8377 55.4082 23.9033 55.3675 23.9506 55.3091C23.9402 55.3498 23.9203 55.3873 23.8925 55.4187C23.8647 55.4501 23.8298 55.4744 23.7907 55.4896C23.7168 55.5239 23.6381 55.5469 23.5573 55.5579C23.3991 55.5801 23.238 55.5697 23.084 55.5274ZM23.4985 56.2429C23.7091 56.2177 23.9158 56.201 24.116 56.1594C24.2152 56.1411 24.3117 56.1108 24.4036 56.0692C24.4971 56.0293 24.5728 55.9566 24.6166 55.8649C24.6097 55.9199 24.59 55.9726 24.559 56.0187C24.528 56.0647 24.4867 56.1029 24.4383 56.13C24.3449 56.1873 24.2419 56.227 24.1342 56.2472C24.0291 56.268 23.9222 56.278 23.8151 56.277C23.7086 56.2776 23.6024 56.2662 23.4985 56.2429ZM24.9899 56.121C25.0404 55.994 25.0868 55.8668 25.1334 55.7404C25.1782 55.6134 25.2225 55.4867 25.2587 55.3578C25.296 55.2296 25.3265 55.0994 25.35 54.968C25.3717 54.8351 25.3823 54.7006 25.3817 54.566C25.4172 54.6996 25.43 54.8383 25.4196 54.9761C25.4083 55.1138 25.3832 55.25 25.3449 55.3828C25.2687 55.647 25.1487 55.8965 24.9899 56.121ZM24.5287 56.8458C24.614 56.824 24.6964 56.8016 24.7771 56.7768C24.8569 56.753 24.9347 56.723 25.0098 56.687C25.0834 56.652 25.1519 56.6074 25.2136 56.5543C25.2737 56.4958 25.324 56.4279 25.3624 56.3533C25.3556 56.4441 25.3216 56.5308 25.2648 56.602C25.2052 56.6717 25.1316 56.7281 25.0489 56.7677C24.9679 56.8062 24.8815 56.8322 24.7926 56.8448C24.7053 56.8592 24.6162 56.8596 24.5287 56.8458ZM26.0161 55.2189C26.1217 55.4453 26.1581 55.698 26.1206 55.9451C26.111 56.007 26.0973 56.0682 26.0795 56.1283C26.07 56.1581 26.0574 56.187 26.0465 56.2163C26.0362 56.2459 26.0231 56.2744 26.0072 56.3014C25.9508 56.4121 25.8741 56.5112 25.7811 56.5937C25.845 56.492 25.8993 56.3845 25.9433 56.2727C25.9862 56.163 26.0159 56.0487 26.0318 55.932C26.0491 55.8149 26.0558 55.6966 26.052 55.5784C26.0481 55.4579 26.0361 55.3378 26.0161 55.2189ZM25.6765 57.0984C25.774 57.0467 25.8691 57.0117 25.9619 56.9716C26.0567 56.9335 26.1483 56.8878 26.2357 56.8348C26.2151 56.8871 26.1815 56.9332 26.138 56.9687C26.0953 57.0039 26.0477 57.0328 25.9967 57.0543C25.9464 57.0751 25.8937 57.0898 25.8398 57.098C25.7858 57.1073 25.7305 57.1075 25.6765 57.0984ZM26.5983 56.1644C26.6254 56.2302 26.6442 56.299 26.6543 56.3694C26.6654 56.4395 26.6699 56.5104 26.6679 56.5813C26.6662 56.6532 26.6552 56.7246 26.6351 56.7937C26.6176 56.865 26.5794 56.9295 26.5253 56.9791C26.5475 56.9147 26.5613 56.8476 26.5665 56.7796C26.5727 56.7131 26.5772 56.6461 26.5782 56.5783C26.5839 56.4428 26.5825 56.3065 26.5983 56.1644Z" fill="#8B9D36"/>
<path d="M27.2061 54.5893C27.2061 54.5893 29.857 54.7816 30.9433 53.591C31.7494 52.7074 30.8641 51.3069 29.7123 51.6293C28.9413 51.8451 28.0155 52.5897 27.2061 54.5893Z" fill="#5E7C24"/>
<path d="M27.2061 54.5889C27.3844 54.5141 27.5605 54.4342 27.7354 54.3519C27.9108 54.271 28.085 54.1875 28.2578 54.1012C28.6029 53.9279 28.945 53.7485 29.2746 53.548C29.6079 53.3543 29.9255 53.1347 30.2244 52.8914C30.3738 52.7699 30.5131 52.6367 30.6411 52.4929C30.7716 52.3505 30.8771 52.187 30.9533 52.0095C30.8853 52.1918 30.787 52.3614 30.6627 52.5112C30.5377 52.6601 30.4007 52.7986 30.2532 52.9253C30.1066 53.0526 29.9527 53.1715 29.7925 53.2812C29.6334 53.3923 29.4707 53.4978 29.3043 53.5976C28.9705 53.795 28.6281 53.9761 28.2771 54.1411C27.9266 54.3059 27.5698 54.4569 27.2061 54.5889Z" fill="#50661A"/>
<path d="M29.9907 53.1064C29.9607 52.9796 29.9382 52.8512 29.9235 52.7218C29.9078 52.5925 29.901 52.4622 29.8967 52.3316C29.8961 52.2006 29.9053 52.0697 29.9243 51.94C29.9386 51.808 29.9927 51.6835 30.0794 51.583C30.0619 51.61 30.046 51.638 30.032 51.667C30.0198 51.6965 30.0098 51.7268 30.002 51.7578C29.9954 51.7891 29.9859 51.8195 29.9812 51.8511L29.9683 51.9462C29.9564 52.0741 29.9518 52.2026 29.9545 52.3311C29.9539 52.4599 29.9615 52.5888 29.9676 52.718L29.9907 53.1064ZM31.2301 53.0408C31.0739 53.0661 30.9146 53.0653 30.7587 53.0383C30.6797 53.0247 30.6028 53.0003 30.5303 52.9659C30.4925 52.9505 30.4586 52.9268 30.4312 52.8965C30.4038 52.8663 30.3836 52.8302 30.372 52.7911C30.4127 52.8557 30.4755 52.9032 30.5488 52.9247C30.6205 52.9497 30.6941 52.9686 30.7689 52.9814C30.92 53.0079 31.0739 53.022 31.2301 53.0408ZM30.7897 53.7407C30.5788 53.7663 30.365 53.7546 30.1581 53.7063C30.0528 53.6826 29.9524 53.641 29.8613 53.5831C29.8144 53.5554 29.7744 53.5176 29.7441 53.4725C29.7138 53.4273 29.694 53.3759 29.6862 53.3221C29.7214 53.4191 29.7926 53.4988 29.885 53.5447C29.9755 53.5925 30.072 53.628 30.1719 53.6502C30.3754 53.695 30.5819 53.7252 30.7897 53.7407ZM29.3038 53.5645C29.233 53.4478 29.1718 53.3255 29.1209 53.1989C29.0694 53.0721 29.0262 52.9422 28.9914 52.8099C28.9591 52.6765 28.9382 52.5406 28.9289 52.4037C28.9215 52.2666 28.935 52.1292 28.969 51.9962C28.9487 52.2653 28.9752 52.5359 29.0475 52.7959C29.0777 52.9271 29.1198 53.0553 29.1623 53.1834C29.2056 53.3113 29.2528 53.4384 29.3038 53.5645ZM29.7382 54.3057C29.6507 54.3098 29.5631 54.3021 29.4777 54.283C29.391 54.2652 29.3072 54.2354 29.2287 54.1945C29.1491 54.1529 29.0785 54.096 29.0209 54.027C28.9666 53.9561 28.9328 53.8717 28.923 53.783C28.9533 53.8621 28.998 53.9348 29.055 53.9975C29.1143 54.0558 29.182 54.105 29.2557 54.1434C29.3305 54.1826 29.4086 54.2148 29.4893 54.2396C29.5704 54.2648 29.6531 54.2881 29.7382 54.3057ZM28.3112 52.6255C28.2808 52.7424 28.2601 52.8616 28.2496 52.9819C28.2383 53.1008 28.2396 53.2207 28.2535 53.3393C28.2644 53.458 28.2914 53.5747 28.3337 53.6861C28.3758 53.799 28.4302 53.9069 28.4958 54.008C28.4112 53.9185 28.3425 53.8153 28.2925 53.7028C28.2421 53.5895 28.2096 53.469 28.1961 53.3457C28.1839 53.2227 28.1871 53.0987 28.2056 52.9765C28.2238 52.855 28.2594 52.7368 28.3112 52.6255ZM28.582 54.5162C28.4742 54.5159 28.3678 54.4919 28.2703 54.4459C28.1688 54.4043 28.0849 54.3289 28.0328 54.2324C28.1122 54.2979 28.2004 54.3522 28.2947 54.3936C28.3875 54.4371 28.4837 54.4733 28.582 54.5162ZM27.6949 53.5492C27.693 53.6896 27.6837 53.8267 27.6839 53.9635C27.6827 54.0315 27.6854 54.0995 27.6919 54.1672C27.6967 54.2355 27.7123 54.3026 27.7381 54.366C27.6916 54.3113 27.6603 54.2453 27.6474 54.1746C27.6322 54.1053 27.625 54.0343 27.6261 53.9633C27.6263 53.8225 27.6495 53.6826 27.6949 53.5492Z" fill="#50661A"/>
<path d="M27.1045 57.1913C27.1045 57.1913 29.7554 57.3837 30.8417 56.193C31.6478 55.3095 30.7625 53.909 29.6108 54.2314C28.8397 54.4472 27.9139 55.1917 27.1045 57.1913Z" fill="#8B9D36"/>
<path d="M27.1045 57.1912C27.2808 57.1113 27.4569 57.0319 27.6306 56.9471C27.8054 56.8648 27.9788 56.78 28.1509 56.6925C28.4945 56.517 28.8364 56.338 29.1648 56.1367C29.4977 55.9438 29.8154 55.7257 30.1149 55.4843C30.2648 55.3643 30.4048 55.2325 30.5335 55.0902C30.6647 54.9489 30.7721 54.7874 30.8517 54.6118C30.7872 54.796 30.6909 54.9675 30.5672 55.1185C30.4429 55.2688 30.3066 55.4088 30.1596 55.5369C30.0135 55.6656 29.8597 55.7853 29.6992 55.8954C29.5401 56.0072 29.3773 56.1132 29.2109 56.2136C28.8759 56.4101 28.5326 56.5914 28.1809 56.7544C27.8298 56.9184 27.4706 57.0642 27.1045 57.1912Z" fill="#5E7C24"/>
<path d="M29.8905 55.7087C29.8203 55.4564 29.7833 55.196 29.7805 54.9341C29.7789 54.8022 29.7892 54.6705 29.8114 54.5405C29.828 54.4073 29.8868 54.2828 29.9791 54.1853C29.963 54.2132 29.9485 54.2418 29.9355 54.2712C29.9245 54.301 29.9157 54.3315 29.9091 54.3625C29.896 54.4245 29.8866 54.4872 29.8807 54.5502C29.8715 54.6772 29.8689 54.805 29.8702 54.9332C29.873 55.19 29.8874 55.4472 29.8905 55.7087ZM31.1298 55.6431C30.9743 55.6798 30.813 55.6843 30.6557 55.6563C30.5754 55.6424 30.4976 55.6165 30.4249 55.5796C30.3864 55.5629 30.3525 55.5374 30.3258 55.505C30.2992 55.4726 30.2806 55.4343 30.2717 55.3934C30.3168 55.4534 30.3809 55.4965 30.4536 55.5156C30.525 55.5379 30.5978 55.5554 30.6715 55.568C30.821 55.5948 30.9734 55.6117 31.1298 55.6431ZM30.6894 56.343C30.5847 56.3625 30.4782 56.37 30.3718 56.3656C30.2648 56.3626 30.1583 56.3487 30.054 56.3241C29.9472 56.3 29.8456 56.2566 29.7544 56.1959C29.7071 56.167 29.6671 56.1274 29.6379 56.0802C29.6086 56.0331 29.5908 55.9797 29.5859 55.9244C29.6263 56.0177 29.6993 56.0931 29.7913 56.1364C29.8816 56.1813 29.977 56.2151 30.0754 56.237C30.274 56.2859 30.4799 56.3102 30.6894 56.343ZM29.2035 56.1668C29.053 55.9367 28.9421 55.6829 28.8757 55.4161C28.8422 55.282 28.8222 55.145 28.8158 55.007C28.8105 54.8688 28.8284 54.7308 28.8687 54.5985C28.8632 54.733 28.8689 54.8678 28.8857 55.0014C28.9044 55.1336 28.9301 55.2648 28.9627 55.3943C28.9942 55.5244 29.0338 55.6526 29.074 55.7812C29.116 55.9092 29.1576 56.038 29.2035 56.1668ZM29.6379 56.908C29.55 56.9185 29.461 56.9149 29.3742 56.8973C29.2859 56.8815 29.2005 56.8523 29.1209 56.8109C29.0397 56.7683 28.9682 56.7093 28.9112 56.6375C28.8571 56.5642 28.8263 56.4763 28.8228 56.3853C28.8584 56.4613 28.9062 56.5309 28.9641 56.5916C29.0239 56.6469 29.0907 56.694 29.1629 56.7316C29.2366 56.7704 29.3133 56.8032 29.3922 56.8299C29.472 56.8577 29.5535 56.883 29.6379 56.908ZM28.2109 55.2278C28.1866 55.3459 28.1702 55.4655 28.1619 55.5857C28.1538 55.7038 28.1562 55.8223 28.1692 55.9399C28.1808 56.057 28.2064 56.1724 28.2452 56.2836C28.2851 56.3969 28.3354 56.5063 28.3956 56.6103C28.3057 56.5245 28.2327 56.4226 28.1803 56.3099C28.1654 56.2824 28.1533 56.2534 28.1441 56.2235C28.1343 56.1938 28.1227 56.1645 28.1144 56.1343C28.0988 56.0736 28.0873 56.012 28.08 55.9497C28.0515 55.7014 28.0971 55.4503 28.2109 55.2278ZM28.4817 57.1185C28.4273 57.1256 28.3722 57.1234 28.3185 57.1121C28.265 57.102 28.2129 57.0854 28.1633 57.0627C28.1131 57.0394 28.0666 57.0088 28.0253 56.972C27.9831 56.9349 27.9511 56.8877 27.9325 56.8347C28.0179 56.8908 28.1078 56.9399 28.2011 56.9814C28.2924 57.0249 28.3861 57.0632 28.4817 57.1185ZM27.5946 56.1515C27.6052 56.294 27.5988 56.4302 27.5995 56.5659C27.5981 56.6336 27.6001 56.7007 27.604 56.7675C27.6066 56.8356 27.618 56.9031 27.6378 56.9683C27.5856 56.9168 27.5498 56.8509 27.5349 56.779C27.5173 56.7092 27.5088 56.6375 27.5098 56.5656C27.5104 56.4946 27.5175 56.4239 27.5312 56.3543C27.5438 56.2843 27.5651 56.2162 27.5946 56.1515Z" fill="#5E7C24"/>
<path d="M27.992 52.4783C27.992 52.4783 27.257 49.924 28.198 48.6155C28.8963 47.6445 30.4493 48.2219 30.3713 49.4154C30.3192 50.2144 29.7816 51.2738 27.992 52.4783Z" fill="#8B9D36"/>
<path d="M27.9922 52.4784C28.041 52.0941 28.1096 51.7124 28.1977 51.3351C28.2846 50.9574 28.3912 50.584 28.5144 50.2157C28.5781 50.0323 28.6483 49.8511 28.725 49.6723C28.7996 49.4925 28.885 49.3173 28.9808 49.1478C29.0759 48.9775 29.1847 48.8153 29.3061 48.6627C29.4283 48.5105 29.5763 48.3809 29.7433 48.2798C29.5879 48.3939 29.452 48.5323 29.3408 48.6898C29.2281 48.8451 29.128 49.0093 29.0415 49.1807C28.8671 49.5236 28.7192 49.8794 28.5991 50.2449C28.4698 50.6078 28.3652 50.9792 28.2644 51.3517C28.2139 51.538 28.1666 51.7252 28.1226 51.9133C28.0755 52.1007 28.034 52.2894 27.9922 52.4784Z" fill="#5E7C24"/>
<path d="M28.8675 49.4472C29.124 49.3962 29.3786 49.3573 29.6305 49.3071C29.7562 49.2819 29.8807 49.253 30.003 49.2178C30.0636 49.199 30.1229 49.1768 30.1809 49.1513C30.2099 49.1384 30.2379 49.1235 30.2647 49.1067C30.2908 49.0879 30.3159 49.0677 30.3398 49.0462C30.2635 49.1567 30.1538 49.2398 30.0269 49.2836C29.9042 49.3321 29.7775 49.3694 29.6481 49.395C29.3913 49.4463 29.1289 49.4638 28.8675 49.4472ZM28.676 48.2209C28.739 48.3675 28.787 48.5131 28.844 48.6539C28.8716 48.7235 28.9037 48.7911 28.9402 48.8563C28.9739 48.9235 29.0293 48.9773 29.0974 49.0091C29.0555 49.0088 29.0142 48.9985 28.977 48.9792C28.9398 48.9598 28.9078 48.9318 28.8836 48.8976C28.8325 48.8341 28.7911 48.7633 28.7609 48.6876C28.7011 48.5395 28.6722 48.3807 28.676 48.2209ZM28.082 48.7962C28.1574 48.9945 28.2236 49.1909 28.3124 49.3752C28.3541 49.467 28.4068 49.5533 28.4694 49.6324C28.5308 49.7135 28.6196 49.7694 28.7192 49.7897C28.6641 49.7963 28.6082 49.7899 28.556 49.771C28.5038 49.7521 28.4568 49.7212 28.4188 49.6808C28.3406 49.604 28.2772 49.5136 28.2316 49.4141C28.186 49.3171 28.1504 49.2158 28.1254 49.1116C28.0991 49.0085 28.0846 48.9027 28.082 48.7962ZM28.5609 50.2139C28.6964 50.2322 28.831 50.2464 28.9649 50.261C29.099 50.2738 29.2327 50.2861 29.3665 50.2902C29.4999 50.2953 29.6336 50.2934 29.7668 50.2845C29.901 50.2734 30.034 50.2511 30.1645 50.2179C30.0434 50.2847 29.912 50.3307 29.7757 50.3539C29.6394 50.3762 29.5012 50.3849 29.3631 50.3798C29.0883 50.3698 28.8172 50.3137 28.5609 50.2139ZM27.7461 49.9416C27.7879 50.0191 27.8295 50.0937 27.8731 50.166C27.9155 50.2377 27.9635 50.3059 28.0166 50.37C28.0683 50.433 28.1281 50.4887 28.1946 50.5357C28.2659 50.5799 28.344 50.6122 28.4256 50.6315C28.3358 50.6468 28.2435 50.6348 28.1607 50.597C28.0786 50.5559 28.0061 50.4982 27.9477 50.4275C27.8907 50.3582 27.8446 50.2806 27.8109 50.1975C27.7758 50.1162 27.7539 50.0298 27.7461 49.9416ZM29.6844 50.9914C29.4902 51.1487 29.2539 51.2451 29.005 51.2684C28.9427 51.2741 28.8799 51.2756 28.8173 51.2729C28.7861 51.2709 28.755 51.2656 28.724 51.2621C28.6928 51.2593 28.6619 51.2534 28.6319 51.2445C28.5108 51.2166 28.3961 51.1662 28.2936 51.0959C28.4078 51.1333 28.5252 51.16 28.6443 51.1756C28.7611 51.1907 28.8792 51.1919 28.9963 51.1792C29.114 51.1676 29.2305 51.1455 29.3443 51.1132C29.4603 51.0802 29.5739 51.0395 29.6844 50.9914ZM27.7785 51.1164C27.8524 51.1985 27.9092 51.2823 27.9706 51.3627C28.0305 51.4455 28.097 51.5233 28.1695 51.5953C28.1139 51.588 28.061 51.5665 28.016 51.5328C27.9715 51.5 27.932 51.4608 27.8988 51.4165C27.8664 51.3727 27.8394 51.3251 27.8184 51.2748C27.7963 51.2246 27.7828 51.1711 27.7785 51.1164ZM28.9077 51.785C28.8505 51.8272 28.7882 51.8621 28.7224 51.8889C28.6571 51.9166 28.5893 51.9382 28.5201 51.9533C28.4499 51.9691 28.3779 51.9757 28.306 51.9729C28.2326 51.9731 28.1608 51.9517 28.0995 51.9112C28.1675 51.9171 28.2359 51.9143 28.3031 51.9029C28.3692 51.8929 28.4353 51.881 28.5013 51.8656C28.6341 51.8384 28.7661 51.8041 28.9077 51.785Z" fill="#5E7C24"/>
<path d="M25.3252 57.4865L25.3252 57.9663C25.3248 58.0104 25.3419 58.0529 25.3728 58.0844C25.4036 58.1159 25.4457 58.1338 25.4898 58.1343L28.7885 58.1343C28.8326 58.1338 28.8747 58.1159 28.9055 58.0844C28.9364 58.0529 28.9535 58.0104 28.9531 57.9663L28.9531 57.5241C28.9535 57.4804 28.9367 57.4382 28.9062 57.4068C28.8757 57.3753 28.8341 57.3572 28.7903 57.3562L25.4917 57.3186C25.4697 57.3186 25.4479 57.3229 25.4276 57.3313C25.4073 57.3398 25.3889 57.3522 25.3734 57.3678C25.3579 57.3834 25.3457 57.4019 25.3374 57.4223C25.3291 57.4427 25.325 57.4645 25.3252 57.4865Z" fill="#D6694B"/>
<path d="M25.4824 58.1343L25.5997 60.6108L28.6005 60.6108L28.7954 58.1343L25.4824 58.1343Z" fill="#E19974"/>
<path d="M67.9441 60.4312L23.0684 60.4312L23.0684 60.6107L67.9441 60.6107L67.9441 60.4312Z" fill="#935B50"/>
<path d="M30.9535 38.0507L29.1435 38.0507C29.1197 38.0507 29.0968 38.0413 29.08 38.0244C29.0632 38.0076 29.0537 37.9848 29.0537 37.961L29.0537 35.6745C29.0537 35.6507 29.0632 35.6278 29.08 35.611C29.0968 35.5942 29.1197 35.5847 29.1435 35.5847L31.6527 35.5847C31.6765 35.5847 31.6993 35.5942 31.7161 35.611C31.733 35.6278 31.7424 35.6507 31.7424 35.6745L31.7424 37.3381L30.9535 38.0507Z" fill="#FFE3CB"/>
<path d="M31.744 37.3408L30.9551 37.3408L30.9551 38.0507L31.744 37.3408Z" fill="#FECA9C"/>
<path d="M30.758 35.354L29.9521 35.354C29.9025 35.354 29.8623 35.3942 29.8623 35.4438L29.8623 35.7489C29.8623 35.7985 29.9025 35.8387 29.9521 35.8387L30.758 35.8387C30.8076 35.8387 30.8478 35.7985 30.8478 35.7489L30.8478 35.4438C30.8478 35.3942 30.8076 35.354 30.758 35.354Z" fill="#FECA9C"/>
<path d="M31.0267 36.4238L29.7666 36.4238L29.7666 36.5136L31.0267 36.5136L31.0267 36.4238Z" fill="#FECA9C"/>
<path d="M31.0267 36.9622L29.7666 36.9622L29.7666 37.0519L31.0267 37.0519L31.0267 36.9622Z" fill="#FECA9C"/>
<path d="M38.3157 35.2658L36.275 35.2658C36.2482 35.2658 36.2224 35.2551 36.2035 35.2362C36.1845 35.2172 36.1738 35.1914 36.1738 35.1646L36.1738 32.5868C36.1738 32.5599 36.1845 32.5342 36.2035 32.5152C36.2224 32.4963 36.2482 32.4856 36.275 32.4856L39.1039 32.4856C39.1307 32.4856 39.1565 32.4963 39.1755 32.5152C39.1944 32.5342 39.2051 32.5599 39.2051 32.5868L39.2051 34.4624L38.3157 35.2658Z" fill="#C0D6F2"/>
<path d="M39.2058 34.4656L38.3164 34.4656L38.3164 35.2658L39.2058 34.4656Z" fill="#A2AEE6"/>
<path d="M38.0939 32.2256L37.1851 32.2256C37.1293 32.2256 37.084 32.2709 37.084 32.3267L37.084 32.6708C37.084 32.7267 37.1293 32.772 37.1851 32.772L38.0939 32.772C38.1497 32.772 38.195 32.7267 38.195 32.6708L38.195 32.3267C38.195 32.2709 38.1497 32.2256 38.0939 32.2256Z" fill="#A2AEE6"/>
<path d="M38.3972 33.4314L36.9766 33.4314L36.9766 33.5325L38.3972 33.5325L38.3972 33.4314Z" fill="#A2AEE6"/>
<path d="M38.3972 34.0386L36.9766 34.0386L36.9766 34.1397L38.3972 34.1397L38.3972 34.0386Z" fill="#A2AEE6"/>
<path d="M54.3987 46.6262L52.358 46.6262C52.3312 46.6262 52.3054 46.6155 52.2865 46.5965C52.2675 46.5775 52.2568 46.5518 52.2568 46.525L52.2568 43.9471C52.2568 43.9203 52.2675 43.8946 52.2865 43.8756C52.3054 43.8566 52.3312 43.8459 52.358 43.8459L55.1869 43.8459C55.2138 43.8459 55.2395 43.8566 55.2585 43.8756C55.2774 43.8946 55.2881 43.9203 55.2881 43.9471L55.2881 45.8228L54.3987 46.6262Z" fill="#FFBA55"/>
<path d="M55.2889 45.8259L54.3994 45.8259L54.3994 46.6262L55.2889 45.8259Z" fill="#E6952A"/>
<path d="M54.1769 43.5859L53.2681 43.5859C53.2123 43.5859 53.167 43.6312 53.167 43.6871L53.167 44.0312C53.167 44.0871 53.2123 44.1323 53.2681 44.1323L54.1769 44.1323C54.2327 44.1323 54.278 44.0871 54.278 44.0312L54.278 43.6871C54.278 43.6312 54.2327 43.5859 54.1769 43.5859Z" fill="#E6952A"/>
<path d="M54.4802 44.7917L53.0596 44.7917L53.0596 44.8929L54.4802 44.8929L54.4802 44.7917Z" fill="#E6952A"/>
<path d="M54.4802 45.3989L53.0596 45.3989L53.0596 45.5001L54.4802 45.5001L54.4802 45.3989Z" fill="#E6952A"/>
<path d="M46.2877 45.2551L45.7691 45.2551C45.7491 45.2551 45.7294 45.2511 45.711 45.2435C45.6926 45.2359 45.6758 45.2247 45.6617 45.2106C45.6476 45.1965 45.6364 45.1798 45.6288 45.1614C45.6212 45.1429 45.6173 45.1232 45.6173 45.1033C45.6173 45.0833 45.6212 45.0636 45.6288 45.0452C45.6364 45.0268 45.6476 45.01 45.6617 44.9959C45.6758 44.9818 45.6926 44.9706 45.711 44.963C45.7294 44.9554 45.7491 44.9515 45.7691 44.9515L46.1359 44.9515L46.1359 44.61C46.1359 44.5698 46.1519 44.5312 46.1803 44.5027C46.2088 44.4742 46.2474 44.4582 46.2877 44.4582C46.3279 44.4582 46.3666 44.4742 46.395 44.5027C46.4235 44.5312 46.4395 44.5698 46.4395 44.61L46.4395 45.1033C46.4395 45.1435 46.4235 45.1821 46.395 45.2106C46.3665 45.2391 46.3279 45.2551 46.2877 45.2551ZM44.7572 45.2551L43.7454 45.2551C43.7254 45.2551 43.7057 45.2511 43.6873 45.2435C43.6688 45.2359 43.6521 45.2247 43.638 45.2106C43.6239 45.1965 43.6127 45.1798 43.6051 45.1614C43.5975 45.1429 43.5936 45.1232 43.5936 45.1033C43.5936 45.0833 43.5975 45.0636 43.6051 45.0452C43.6127 45.0268 43.6239 45.01 43.638 44.9959C43.6521 44.9818 43.6688 44.9706 43.6873 44.963C43.7057 44.9554 43.7254 44.9515 43.7454 44.9515L44.7572 44.9515C44.7974 44.9515 44.836 44.9675 44.8645 44.9959C44.893 45.0244 44.909 45.063 44.909 45.1033C44.909 45.1435 44.893 45.1821 44.8645 45.2106C44.836 45.2391 44.7974 45.2551 44.7572 45.2551ZM42.7335 45.2551L41.7216 45.2551C41.7016 45.2551 41.6819 45.2511 41.6635 45.2435C41.6451 45.2359 41.6283 45.2247 41.6142 45.2106C41.6001 45.1965 41.589 45.1798 41.5813 45.1614C41.5737 45.1429 41.5698 45.1232 41.5698 45.1033C41.5698 45.0833 41.5737 45.0636 41.5813 45.0452C41.589 45.0268 41.6001 45.01 41.6142 44.9959C41.6283 44.9818 41.6451 44.9706 41.6635 44.963C41.6819 44.9554 41.7016 44.9515 41.7216 44.9515L42.7335 44.9515C42.7534 44.9515 42.7731 44.9554 42.7916 44.963C42.81 44.9706 42.8267 44.9818 42.8408 44.9959C42.8549 45.01 42.8661 45.0268 42.8737 45.0452C42.8813 45.0636 42.8853 45.0833 42.8853 45.1033C42.8853 45.1232 42.8813 45.1429 42.8737 45.1614C42.8661 45.1798 42.8549 45.1965 42.8408 45.2106C42.8267 45.2247 42.81 45.2359 42.7916 45.2435C42.7731 45.2511 42.7534 45.2551 42.7335 45.2551ZM40.7098 45.2551L39.6979 45.2551C39.6779 45.2551 39.6582 45.2511 39.6398 45.2435C39.6214 45.2359 39.6046 45.2247 39.5905 45.2106C39.5764 45.1965 39.5652 45.1798 39.5576 45.1614C39.55 45.1429 39.5461 45.1232 39.5461 45.1033C39.5461 45.0833 39.55 45.0636 39.5576 45.0452C39.5652 45.0268 39.5764 45.01 39.5905 44.9959C39.6046 44.9818 39.6214 44.9706 39.6398 44.963C39.6582 44.9554 39.6779 44.9515 39.6979 44.9515L40.7098 44.9515C40.7297 44.9515 40.7494 44.9554 40.7679 44.963C40.7863 44.9706 40.803 44.9818 40.8171 44.9959C40.8312 45.01 40.8424 45.0268 40.85 45.0452C40.8576 45.0636 40.8616 45.0833 40.8616 45.1033C40.8616 45.1232 40.8576 45.1429 40.85 45.1614C40.8424 45.1798 40.8312 45.1965 40.8171 45.2106C40.803 45.2247 40.7863 45.2359 40.7679 45.2435C40.7494 45.2511 40.7297 45.2551 40.7098 45.2551ZM38.686 45.2551L37.6742 45.2551C37.6339 45.2551 37.5953 45.2391 37.5668 45.2106C37.5384 45.1821 37.5224 45.1435 37.5224 45.1033C37.5224 45.063 37.5384 45.0244 37.5668 44.9959C37.5953 44.9675 37.6339 44.9515 37.6742 44.9515L38.686 44.9515C38.7059 44.9515 38.7257 44.9554 38.7441 44.963C38.7625 44.9706 38.7792 44.9818 38.7933 44.9959C38.8074 45.01 38.8186 45.0268 38.8262 45.0452C38.8339 45.0636 38.8378 45.0833 38.8378 45.1033C38.8378 45.1232 38.8339 45.1429 38.8262 45.1614C38.8186 45.1798 38.8074 45.1965 38.7933 45.2106C38.7792 45.2247 38.7625 45.2359 38.7441 45.2435C38.7257 45.2511 38.7059 45.2551 38.686 45.2551ZM37.6391 44.2782C37.5989 44.2782 37.5603 44.2622 37.5318 44.2337C37.5033 44.2053 37.4873 44.1667 37.4873 44.1264L37.4873 43.1145C37.4874 43.0743 37.5034 43.0358 37.5319 43.0074C37.5604 42.979 37.5989 42.9631 37.6391 42.9631C37.6793 42.9631 37.7179 42.979 37.7463 43.0074C37.7748 43.0358 37.7908 43.0743 37.7909 43.1145L37.7909 44.1264C37.7909 44.1667 37.7749 44.2053 37.7464 44.2337C37.718 44.2622 37.6794 44.2782 37.6391 44.2782ZM46.2877 43.7499C46.2474 43.7499 46.2088 43.734 46.1803 43.7055C46.1519 43.677 46.1359 43.6384 46.1359 43.5982L46.1359 42.5863C46.1359 42.546 46.1519 42.5074 46.1803 42.4789C46.2088 42.4505 46.2474 42.4345 46.2877 42.4345C46.3279 42.4345 46.3666 42.4505 46.395 42.4789C46.4235 42.5074 46.4395 42.546 46.4395 42.5863L46.4395 43.5982C46.4395 43.6384 46.4235 43.677 46.395 43.7055C46.3665 43.734 46.3279 43.7499 46.2877 43.7499ZM53.7736 43.0753C53.7333 43.0753 53.6947 43.0593 53.6663 43.0308C53.6378 43.0024 53.6218 42.9638 53.6218 42.9235L53.6218 42.6083C53.6219 42.5681 53.6379 42.5296 53.6664 42.5012C53.6948 42.4728 53.7334 42.4569 53.7736 42.4569C53.8138 42.4569 53.8523 42.4728 53.8808 42.5012C53.9093 42.5296 53.9253 42.5681 53.9254 42.6083L53.9254 42.9235C53.9254 42.9638 53.9094 43.0024 53.8809 43.0308C53.8525 43.0593 53.8138 43.0753 53.7736 43.0753ZM37.6391 42.2544C37.5989 42.2544 37.5603 42.2385 37.5318 42.21C37.5033 42.1815 37.4873 42.1429 37.4873 42.1027L37.4873 41.0908C37.4874 41.0506 37.5034 41.0121 37.5319 40.9837C37.5604 40.9553 37.5989 40.9394 37.6391 40.9394C37.6793 40.9394 37.7179 40.9553 37.7463 40.9837C37.7748 41.0121 37.7908 41.0506 37.7909 41.0908L37.7909 42.1027C37.7909 42.1429 37.7749 42.1815 37.7464 42.21C37.718 42.2385 37.6794 42.2544 37.6391 42.2544ZM53.7736 41.7482C53.7333 41.7482 53.6947 41.7322 53.6663 41.7038C53.6378 41.6753 53.6218 41.6367 53.6218 41.5965L53.6218 40.5846C53.6219 40.5444 53.6379 40.5059 53.6664 40.4775C53.6948 40.4491 53.7334 40.4331 53.7736 40.4331C53.8138 40.4331 53.8523 40.4491 53.8808 40.4775C53.9093 40.5059 53.9253 40.5444 53.9254 40.5846L53.9254 41.5965C53.9254 41.6367 53.9094 41.6753 53.8809 41.7038C53.8525 41.7322 53.8138 41.7482 53.7736 41.7482ZM46.2877 41.7262C46.2474 41.7262 46.2088 41.7102 46.1803 41.6817C46.1519 41.6533 46.1359 41.6147 46.1359 41.5744L46.1359 40.5626C46.1359 40.5223 46.1519 40.4837 46.1803 40.4552C46.2088 40.4268 46.2474 40.4108 46.2877 40.4108C46.3279 40.4108 46.3666 40.4268 46.395 40.4552C46.4235 40.4837 46.4395 40.5223 46.4395 40.5626L46.4395 41.5744C46.4395 41.6147 46.4235 41.6533 46.395 41.6817C46.3665 41.7102 46.3279 41.7262 46.2877 41.7262ZM37.6391 40.2307C37.5989 40.2307 37.5603 40.2147 37.5318 40.1863C37.5033 40.1578 37.4873 40.1192 37.4873 40.0789L37.4873 40.0386C37.4873 39.9984 37.5033 39.9598 37.5318 39.9313C37.5603 39.9028 37.5989 39.8869 37.6391 39.8869L38.6106 39.8869C38.6508 39.8869 38.6895 39.9028 38.7179 39.9313C38.7464 39.9598 38.7624 39.9984 38.7624 40.0386C38.7624 40.0789 38.7464 40.1175 38.7179 40.1459C38.6895 40.1744 38.6508 40.1904 38.6106 40.1904L37.7421 40.1904C37.7141 40.2164 37.6773 40.2308 37.6391 40.2307ZM42.1586 40.1904L41.6462 40.1904C41.6059 40.1904 41.5673 40.1744 41.5389 40.1459C41.5104 40.1175 41.4944 40.0789 41.4944 40.0386C41.4944 39.9984 41.5104 39.9598 41.5389 39.9313C41.5673 39.9028 41.6059 39.8869 41.6462 39.8869L42.0068 39.8869L42.0068 39.5391C42.0068 39.4989 42.0228 39.4602 42.0512 39.4318C42.0797 39.4033 42.1183 39.3873 42.1586 39.3873C42.1988 39.3873 42.2375 39.4033 42.2659 39.4318C42.2944 39.4602 42.3104 39.4989 42.3104 39.5391L42.3104 40.0386C42.3104 40.0789 42.2944 40.1175 42.2659 40.1459C42.2374 40.1744 42.1988 40.1904 42.1586 40.1904ZM40.6344 40.1904L39.6225 40.1904C39.5822 40.1904 39.5436 40.1744 39.5152 40.1459C39.4867 40.1175 39.4707 40.0789 39.4707 40.0386C39.4707 39.9984 39.4867 39.9598 39.5152 39.9313C39.5436 39.9028 39.5822 39.8869 39.6225 39.8869L40.6344 39.8869C40.6746 39.8869 40.7132 39.9028 40.7417 39.9313C40.7702 39.9598 40.7862 39.9984 40.7862 40.0386C40.7862 40.0789 40.7702 40.1175 40.7417 40.1459C40.7132 40.1744 40.6746 40.1904 40.6344 40.1904ZM53.5831 39.9149L52.5713 39.9149C52.5514 39.915 52.5316 39.9111 52.5131 39.9035C52.4947 39.8959 52.4779 39.8847 52.4638 39.8706C52.4496 39.8565 52.4384 39.8397 52.4308 39.8213C52.4231 39.8029 52.4192 39.7831 52.4192 39.7631C52.4192 39.7432 52.4231 39.7234 52.4308 39.705C52.4384 39.6865 52.4496 39.6698 52.4638 39.6557C52.4779 39.6416 52.4947 39.6304 52.5131 39.6228C52.5316 39.6152 52.5514 39.6113 52.5713 39.6114L53.5831 39.6114C53.6031 39.6113 53.6229 39.6152 53.6413 39.6228C53.6598 39.6304 53.6766 39.6416 53.6907 39.6557C53.7048 39.6698 53.716 39.6865 53.7237 39.705C53.7313 39.7234 53.7353 39.7432 53.7353 39.7631C53.7353 39.7831 53.7313 39.8029 53.7237 39.8213C53.716 39.8397 53.7048 39.8565 53.6907 39.8706C53.6766 39.8847 53.6598 39.8959 53.6413 39.9035C53.6229 39.9111 53.6031 39.915 53.5831 39.9149ZM51.5594 39.9149L50.5475 39.9149C50.5276 39.915 50.5078 39.9111 50.4893 39.9035C50.4709 39.8959 50.4541 39.8847 50.44 39.8706C50.4259 39.8565 50.4146 39.8397 50.407 39.8213C50.3993 39.8029 50.3954 39.7831 50.3954 39.7631C50.3954 39.7432 50.3993 39.7234 50.407 39.705C50.4146 39.6865 50.4259 39.6698 50.44 39.6557C50.4541 39.6416 50.4709 39.6304 50.4893 39.6228C50.5078 39.6152 50.5276 39.6113 50.5475 39.6114L51.5594 39.6114C51.5794 39.6113 51.5992 39.6152 51.6176 39.6228C51.6361 39.6304 51.6529 39.6416 51.667 39.6557C51.6811 39.6698 51.6923 39.6865 51.7 39.705C51.7076 39.7234 51.7116 39.7432 51.7116 39.7631C51.7116 39.7831 51.7076 39.8029 51.7 39.8213C51.6923 39.8397 51.6811 39.8565 51.667 39.8706C51.6529 39.8847 51.6361 39.8959 51.6176 39.9035C51.5992 39.9111 51.5794 39.915 51.5594 39.9149ZM49.5357 39.9149L48.5238 39.9149C48.5039 39.915 48.4841 39.9111 48.4656 39.9035C48.4472 39.8959 48.4304 39.8847 48.4163 39.8706C48.4022 39.8565 48.3909 39.8397 48.3833 39.8213C48.3756 39.8029 48.3717 39.7831 48.3717 39.7631C48.3717 39.7432 48.3756 39.7234 48.3833 39.705C48.3909 39.6865 48.4022 39.6698 48.4163 39.6557C48.4304 39.6416 48.4472 39.6304 48.4656 39.6228C48.4841 39.6152 48.5039 39.6113 48.5238 39.6114L49.5357 39.6114C49.5557 39.6113 49.5755 39.6152 49.5939 39.6228C49.6124 39.6304 49.6291 39.6416 49.6433 39.6557C49.6574 39.6698 49.6686 39.6865 49.6763 39.705C49.6839 39.7234 49.6879 39.7432 49.6879 39.7631C49.6879 39.7831 49.6839 39.8029 49.6763 39.8213C49.6686 39.8397 49.6574 39.8565 49.6433 39.8706C49.6291 39.8847 49.6124 39.8959 49.5939 39.9035C49.5755 39.9111 49.5557 39.915 49.5357 39.9149ZM47.5119 39.9149L46.5001 39.9149C46.4802 39.915 46.4604 39.9111 46.4419 39.9035C46.4235 39.8959 46.4067 39.8847 46.3926 39.8706C46.3785 39.8565 46.3672 39.8397 46.3596 39.8213C46.3519 39.8029 46.348 39.7831 46.348 39.7631C46.348 39.7432 46.3519 39.7234 46.3596 39.705C46.3672 39.6865 46.3785 39.6698 46.3926 39.6557C46.4067 39.6416 46.4235 39.6304 46.4419 39.6228C46.4604 39.6152 46.4802 39.6113 46.5001 39.6114L47.5119 39.6114C47.5319 39.6113 47.5517 39.6152 47.5701 39.6228C47.5886 39.6304 47.6054 39.6416 47.6195 39.6557C47.6336 39.6698 47.6448 39.6865 47.6525 39.705C47.6601 39.7234 47.6641 39.7432 47.6641 39.7631C47.6641 39.7831 47.6601 39.8029 47.6525 39.8213C47.6448 39.8397 47.6336 39.8565 47.6195 39.8706C47.6054 39.8847 47.5886 39.8959 47.5701 39.9035C47.5517 39.9111 47.5319 39.915 47.5119 39.9149ZM42.1586 38.679C42.1183 38.679 42.0797 38.663 42.0513 38.6345C42.0228 38.6061 42.0068 38.5675 42.0068 38.5272L42.0068 37.5154C42.0068 37.4751 42.0228 37.4365 42.0512 37.408C42.0797 37.3796 42.1183 37.3636 42.1586 37.3636C42.1988 37.3636 42.2375 37.3796 42.2659 37.408C42.2944 37.4365 42.3104 37.4751 42.3104 37.5154L42.3104 38.5272C42.3104 38.5675 42.2944 38.6061 42.2659 38.6345C42.2374 38.663 42.1988 38.679 42.1586 38.679ZM53.2688 36.8223L52.4442 36.8223C52.404 36.8223 52.3654 36.8063 52.3369 36.7778C52.3085 36.7493 52.2925 36.7107 52.2925 36.6705C52.2925 36.6302 52.3085 36.5916 52.3369 36.5632C52.3654 36.5347 52.404 36.5187 52.4442 36.5187L53.117 36.5187L53.117 36.4832C53.1171 36.443 53.1332 36.4045 53.1616 36.3761C53.1901 36.3477 53.2286 36.3318 53.2688 36.3318C53.309 36.3318 53.3476 36.3477 53.376 36.3761C53.4045 36.4045 53.4205 36.443 53.4206 36.4832L53.4206 36.6705C53.4206 36.7107 53.4046 36.7493 53.3762 36.7778C53.3477 36.8063 53.3091 36.8223 53.2688 36.8223ZM51.4323 36.8223L50.4204 36.8223C50.3802 36.8223 50.3416 36.8063 50.3131 36.7778C50.2847 36.7493 50.2687 36.7107 50.2687 36.6705C50.2687 36.6302 50.2847 36.5916 50.3131 36.5632C50.3416 36.5347 50.3802 36.5187 50.4204 36.5187L51.4323 36.5187C51.4726 36.5187 51.5112 36.5347 51.5397 36.5632C51.5681 36.5916 51.5841 36.6302 51.5841 36.6705C51.5841 36.7107 51.5681 36.7493 51.5397 36.7778C51.5112 36.8063 51.4726 36.8223 51.4323 36.8223ZM49.4086 36.8223L48.3967 36.8223C48.3565 36.8223 48.3179 36.8063 48.2894 36.7778C48.261 36.7493 48.245 36.7107 48.245 36.6705C48.245 36.6302 48.261 36.5916 48.2894 36.5632C48.3179 36.5347 48.3565 36.5187 48.3967 36.5187L49.4086 36.5187C49.4489 36.5187 49.4875 36.5347 49.516 36.5632C49.5444 36.5916 49.5604 36.6302 49.5604 36.6705C49.5604 36.7107 49.5444 36.7493 49.516 36.7778C49.4875 36.8063 49.4489 36.8223 49.4086 36.8223ZM47.3849 36.8223L46.373 36.8223C46.3328 36.8223 46.2942 36.8063 46.2657 36.7778C46.2373 36.7493 46.2213 36.7107 46.2213 36.6705C46.2213 36.6302 46.2373 36.5916 46.2657 36.5632C46.2942 36.5347 46.3328 36.5187 46.373 36.5187L47.3849 36.5187C47.4251 36.5187 47.4637 36.5347 47.4922 36.5632C47.5206 36.5916 47.5366 36.6302 47.5366 36.6705C47.5366 36.7107 47.5206 36.7493 47.4922 36.7778C47.4637 36.8063 47.4251 36.8223 47.3849 36.8223ZM45.3612 36.8223L44.3493 36.8223C44.309 36.8223 44.2704 36.8063 44.2419 36.7778C44.2135 36.7493 44.1975 36.7107 44.1975 36.6705C44.1975 36.6302 44.2135 36.5916 44.2419 36.5632C44.2704 36.5347 44.309 36.5187 44.3493 36.5187L45.3612 36.5187C45.4014 36.5187 45.44 36.5347 45.4685 36.5632C45.4969 36.5916 45.5129 36.6302 45.5129 36.6705C45.5129 36.7107 45.4969 36.7493 45.4685 36.7778C45.44 36.8063 45.4014 36.8223 45.3612 36.8223ZM43.3374 36.8223L42.3256 36.8223C42.2853 36.8223 42.2467 36.8063 42.2182 36.7778C42.1898 36.7493 42.1738 36.7107 42.1738 36.6705C42.1738 36.6302 42.1898 36.5916 42.2182 36.5632C42.2467 36.5347 42.2853 36.5187 42.3256 36.5187L43.3374 36.5187C43.3777 36.5187 43.4163 36.5347 43.4448 36.5632C43.4732 36.5916 43.4892 36.6302 43.4892 36.6705C43.4892 36.7107 43.4732 36.7493 43.4448 36.7778C43.4163 36.8063 43.3777 36.8223 43.3374 36.8223ZM53.2688 35.6231C53.2286 35.6231 53.19 35.6072 53.1615 35.5787C53.133 35.5502 53.117 35.5116 53.117 35.4714L53.117 34.4595C53.1171 34.4193 53.1332 34.3808 53.1616 34.3524C53.1901 34.324 53.2286 34.3081 53.2688 34.3081C53.309 34.3081 53.3476 34.324 53.376 34.3524C53.4045 34.3808 53.4205 34.4193 53.4206 34.4595L53.4206 35.4714C53.4206 35.5116 53.4046 35.5502 53.3762 35.5787C53.3477 35.6072 53.3091 35.6231 53.2688 35.6231ZM53.2688 33.5994C53.2452 33.5994 53.2219 33.5939 53.2007 33.5833L52.2731 33.5833C52.2328 33.5833 52.1942 33.5673 52.1657 33.5389C52.1373 33.5104 52.1213 33.4718 52.1213 33.4315C52.1213 33.3913 52.1373 33.3527 52.1657 33.3242C52.1942 33.2958 52.2328 33.2798 52.2731 33.2798L53.2688 33.2798C53.3091 33.2798 53.3477 33.2958 53.3762 33.3242C53.4046 33.3527 53.4206 33.3913 53.4206 33.4315L53.4206 33.4476C53.4206 33.4879 53.4046 33.5265 53.3762 33.5549C53.3477 33.5834 53.3091 33.5994 53.2688 33.5994ZM51.2612 33.5833L50.2494 33.5833C50.2091 33.5833 50.1705 33.5673 50.142 33.5389C50.1136 33.5104 50.0976 33.4718 50.0976 33.4315C50.0976 33.3913 50.1136 33.3527 50.142 33.3242C50.1705 33.2958 50.2091 33.2798 50.2494 33.2798L51.2612 33.2798C51.3014 33.2798 51.34 33.2958 51.3685 33.3242C51.3969 33.3527 51.4129 33.3913 51.4129 33.4315C51.4129 33.4718 51.3969 33.5104 51.3685 33.5389C51.34 33.5673 51.3014 33.5833 51.2612 33.5833ZM49.2375 33.5833L48.2256 33.5833C48.1853 33.5833 48.1467 33.5673 48.1183 33.5389C48.0898 33.5104 48.0738 33.4718 48.0738 33.4315C48.0738 33.3913 48.0898 33.3527 48.1183 33.3242C48.1467 33.2958 48.1853 33.2798 48.2256 33.2798L49.2375 33.2798C49.2777 33.2798 49.3163 33.2958 49.3448 33.3242C49.3732 33.3527 49.3892 33.3913 49.3892 33.4315C49.3892 33.4718 49.3732 33.5104 49.3448 33.5389C49.3163 33.5673 49.2777 33.5833 49.2375 33.5833ZM47.2138 33.5833L46.2019 33.5833C46.1616 33.5833 46.123 33.5673 46.0946 33.5389C46.0661 33.5104 46.0501 33.4718 46.0501 33.4315C46.0501 33.3913 46.0661 33.3527 46.0946 33.3242C46.123 33.2958 46.1616 33.2798 46.2019 33.2798L47.2138 33.2798C47.254 33.2798 47.2926 33.2958 47.3211 33.3242C47.3495 33.3527 47.3655 33.3913 47.3655 33.4315C47.3655 33.4718 47.3495 33.5104 47.3211 33.5389C47.2926 33.5673 47.254 33.5833 47.2138 33.5833ZM45.19 33.5833L44.1782 33.5833C44.1379 33.5833 44.0993 33.5673 44.0709 33.5389C44.0424 33.5104 44.0264 33.4718 44.0264 33.4315C44.0264 33.3913 44.0424 33.3527 44.0709 33.3242C44.0993 33.2958 44.1379 33.2798 44.1782 33.2798L45.19 33.2798C45.2302 33.2798 45.2688 33.2958 45.2973 33.3242C45.3257 33.3527 45.3417 33.3913 45.3417 33.4315C45.3417 33.4718 45.3257 33.5104 45.2973 33.5389C45.2688 33.5673 45.2302 33.5833 45.19 33.5833ZM43.1663 33.5833L42.1544 33.5833C42.1141 33.5833 42.0755 33.5673 42.0471 33.5389C42.0186 33.5104 42.0026 33.4718 42.0026 33.4315C42.0026 33.3913 42.0186 33.3527 42.0471 33.3242C42.0755 33.2958 42.1141 33.2798 42.1544 33.2798L43.1663 33.2798C43.2065 33.2798 43.2451 33.2958 43.2736 33.3242C43.302 33.3527 43.318 33.3913 43.318 33.4315C43.318 33.4718 43.302 33.5104 43.2736 33.5389C43.2451 33.5673 43.2065 33.5833 43.1663 33.5833ZM41.1426 33.5833L40.1307 33.5833C40.0904 33.5833 40.0518 33.5673 40.0234 33.5389C39.9949 33.5104 39.9789 33.4718 39.9789 33.4315C39.9789 33.3913 39.9949 33.3527 40.0234 33.3242C40.0518 33.2958 40.0904 33.2798 40.1307 33.2798L41.1426 33.2798C41.1828 33.2798 41.2214 33.2958 41.2499 33.3242C41.2783 33.3527 41.2943 33.3913 41.2943 33.4315C41.2943 33.4718 41.2783 33.5104 41.2499 33.5389C41.2214 33.5673 41.1828 33.5833 41.1426 33.5833Z" fill="#A2AEE6"/>
<path d="M43.3342 41.9416L41.2936 41.9416C41.2667 41.9416 41.241 41.9309 41.222 41.9119C41.203 41.893 41.1924 41.8672 41.1924 41.8404L41.1924 39.2626C41.1924 39.2357 41.203 39.21 41.222 39.191C41.241 39.172 41.2667 39.1614 41.2936 39.1614L44.1225 39.1614C44.1493 39.1614 44.175 39.172 44.194 39.191C44.213 39.21 44.2237 39.2357 44.2237 39.2626L44.2237 41.1382L43.3342 41.9416Z" fill="#F73C4F"/>
<path d="M44.2233 41.1414L43.334 41.1414L43.334 41.9416L44.2233 41.1414Z" fill="#B02336"/>
<path d="M43.1114 38.9009L42.2027 38.9009C42.1468 38.9009 42.1016 38.9462 42.1016 39.002L42.1016 39.3461C42.1016 39.402 42.1468 39.4473 42.2027 39.4473L43.1114 39.4473C43.1673 39.4473 43.2126 39.402 43.2126 39.3461L43.2126 39.002C43.2126 38.9462 43.1673 38.9009 43.1114 38.9009Z" fill="#B02336"/>
<path d="M43.4158 40.1072L41.9951 40.1072L41.9951 40.2083L43.4158 40.2083L43.4158 40.1072Z" fill="#B02336"/>
<path d="M43.4158 40.7144L41.9951 40.7144L41.9951 40.8155L43.4158 40.8155L43.4158 40.7144Z" fill="#B02336"/>
<path d="M46.1731 45.831C45.9876 45.831 45.8063 45.776 45.6521 45.6729C45.4979 45.5699 45.3777 45.4234 45.3067 45.252C45.2357 45.0807 45.2171 44.8921 45.2533 44.7102C45.2895 44.5283 45.3788 44.3612 45.51 44.23C45.6411 44.0989 45.8082 44.0096 45.9902 43.9734C46.1721 43.9372 46.3606 43.9558 46.532 44.0267C46.7034 44.0977 46.8498 44.2179 46.9529 44.3721C47.0559 44.5264 47.1109 44.7077 47.1109 44.8931C47.1106 45.1418 47.0117 45.3802 46.8359 45.556C46.6601 45.7318 46.4217 45.8307 46.1731 45.831ZM46.1731 44.0565C46.0076 44.0565 45.8459 44.1056 45.7083 44.1975C45.5707 44.2895 45.4635 44.4201 45.4001 44.573C45.3368 44.7259 45.3203 44.8941 45.3525 45.0564C45.3848 45.2187 45.4645 45.3678 45.5815 45.4848C45.6985 45.6018 45.8476 45.6815 46.0099 45.7138C46.1722 45.746 46.3404 45.7295 46.4933 45.6661C46.6462 45.6028 46.7769 45.4956 46.8688 45.358C46.9607 45.2204 47.0098 45.0586 47.0098 44.8931C47.0095 44.6713 46.9213 44.4587 46.7644 44.3018C46.6076 44.145 46.3949 44.0568 46.1731 44.0565ZM37.639 40.9766C37.4535 40.9766 37.2722 40.9216 37.118 40.8185C36.9637 40.7155 36.8435 40.569 36.7726 40.3977C36.7016 40.2263 36.683 40.0377 36.7192 39.8558C36.7554 39.6739 36.8447 39.5068 36.9759 39.3756C37.107 39.2445 37.2741 39.1551 37.456 39.119C37.638 39.0828 37.8265 39.1013 37.9979 39.1723C38.1693 39.2433 38.3157 39.3635 38.4188 39.5177C38.5218 39.672 38.5768 39.8533 38.5768 40.0388C38.5766 40.2874 38.4777 40.5258 38.3018 40.7016C38.126 40.8774 37.8876 40.9763 37.639 40.9766ZM37.639 39.2021C37.4735 39.2021 37.3118 39.2512 37.1742 39.3431C37.0366 39.435 36.9293 39.5657 36.866 39.7186C36.8027 39.8715 36.7861 40.0397 36.8184 40.202C36.8507 40.3643 36.9304 40.5134 37.0474 40.6304C37.1644 40.7474 37.3135 40.8271 37.4758 40.8594C37.6381 40.8917 37.8063 40.8751 37.9592 40.8118C38.1121 40.7484 38.2427 40.6412 38.3347 40.5036C38.4266 40.366 38.4757 40.2043 38.4757 40.0388C38.4754 39.8169 38.3872 39.6043 38.2304 39.4474C38.0735 39.2906 37.8608 39.2023 37.639 39.2021ZM53.9005 35.5736C53.8905 35.5737 53.8806 35.5717 53.8714 35.5679C53.8622 35.5641 53.8539 35.5584 53.8468 35.5514L52.5833 34.2879C52.5691 34.2737 52.5612 34.2544 52.5612 34.2343C52.5612 34.2142 52.5692 34.1949 52.5834 34.1807C52.5976 34.1665 52.6169 34.1585 52.637 34.1584C52.6571 34.1584 52.6764 34.1664 52.6906 34.1806L53.9541 35.444C53.9647 35.4547 53.972 35.4682 53.9749 35.4829C53.9778 35.4976 53.9763 35.5129 53.9706 35.5268C53.9648 35.5406 53.9551 35.5525 53.9426 35.5608C53.9302 35.5692 53.9155 35.5736 53.9005 35.5736Z" fill="#F73C4F"/>
<path d="M52.6365 35.5737C52.6214 35.5737 52.6068 35.5692 52.5943 35.5609C52.5818 35.5526 52.5721 35.5407 52.5664 35.5268C52.5606 35.513 52.5591 35.4977 52.5621 35.483C52.565 35.4683 52.5722 35.4547 52.5828 35.4441L53.8463 34.1806C53.8606 34.1665 53.8799 34.1586 53.8999 34.1586C53.92 34.1587 53.9393 34.1666 53.9535 34.1808C53.9677 34.195 53.9756 34.2143 53.9757 34.2344C53.9757 34.2545 53.9678 34.2737 53.9536 34.288L52.6901 35.5515C52.6831 35.5585 52.6747 35.5641 52.6655 35.568C52.6563 35.5718 52.6464 35.5737 52.6365 35.5737ZM46.3376 34.1394C46.3276 34.1395 46.3177 34.1375 46.3085 34.1337C46.2993 34.1299 46.2909 34.1243 46.2839 34.1172L45.0203 32.8537C45.0132 32.8467 45.0077 32.8383 45.0038 32.8291C45 32.8199 44.9981 32.81 44.998 32.8C44.998 32.7901 45 32.7802 45.0038 32.771C45.0076 32.7618 45.0132 32.7534 45.0203 32.7464C45.0273 32.7393 45.0357 32.7337 45.0449 32.7299C45.0541 32.7261 45.0639 32.7241 45.0739 32.7241C45.0839 32.7241 45.0937 32.7261 45.103 32.7299C45.1122 32.7337 45.1205 32.7393 45.1276 32.7463L46.3912 34.0099C46.4018 34.0205 46.409 34.034 46.412 34.0487C46.4149 34.0634 46.4134 34.0787 46.4076 34.0926C46.4019 34.1064 46.3922 34.1183 46.3797 34.1266C46.3672 34.135 46.3526 34.1394 46.3376 34.1394Z" fill="#F73C4F"/>
<path d="M45.0739 34.1394C45.0589 34.1394 45.0442 34.135 45.0318 34.1266C45.0193 34.1183 45.0096 34.1064 45.0038 34.0926C44.9981 34.0787 44.9966 34.0634 44.9995 34.0487C45.0024 34.034 45.0097 34.0205 45.0203 34.0099L46.2839 32.7463C46.2981 32.7321 46.3174 32.7241 46.3375 32.7241C46.3577 32.7241 46.377 32.7321 46.3912 32.7464C46.4054 32.7606 46.4134 32.7799 46.4134 32.8C46.4134 32.8202 46.4054 32.8395 46.3912 32.8537L45.1275 34.1172C45.1205 34.1243 45.1121 34.1299 45.1029 34.1337C45.0937 34.1375 45.0839 34.1395 45.0739 34.1394Z" fill="#F73C4F"/>
</g>
<rect x="27.1474" y="0.654157" width="67.7865" height="66.9577" rx="15.5" transform="rotate(22.6861 27.1474 0.654157)" stroke="#EAF4EC" stroke-opacity="0.7"/>
</g>
<defs>
<filter id="filter0_d_246_61370" x="-4.33105" y="-2" width="99.6748" height="99.2297" filterUnits="userSpaceOnUse" color-interpolation-filters="sRGB">
<feFlood flood-opacity="0" result="BackgroundImageFix"/>
<feColorMatrix in="SourceAlpha" type="matrix" values="0 0 0 0 0 0 0 0 0 0 0 0 0 0 0 0 0 0 127 0" result="hardAlpha"/>
<feMorphology radius="1" operator="dilate" in="SourceAlpha" result="effect1_dropShadow_246_61370"/>
<feOffset dy="3"/>
<feGaussianBlur stdDeviation="2"/>
<feComposite in2="hardAlpha" operator="out"/>
<feColorMatrix type="matrix" values="0 0 0 0 0.937255 0 0 0 0 0.937255 0 0 0 0 0.952941 0 0 0 0.45 0"/>
<feBlend mode="normal" in2="BackgroundImageFix" result="effect1_dropShadow_246_61370"/>
<feBlend mode="normal" in="SourceGraphic" in2="effect1_dropShadow_246_61370" result="shape"/>
</filter>
<clipPath id="clip0_246_61370">
<rect x="26.8789" width="68.7865" height="67.9577" rx="16" transform="rotate(22.6861 26.8789 0)" fill="white"/>
</clipPath>
</defs>
</svg>
