<svg width="20" height="20" viewBox="0 0 20 20" fill="none" xmlns="http://www.w3.org/2000/svg">
<path fill-rule="evenodd" clip-rule="evenodd" d="M1 10C1 6.40486 1 4.60729 1.85669 3.31255C2.23925 2.73439 2.73439 2.23925 3.31255 1.85669C4.60729 1 6.40486 1 10 1C13.5951 1 15.3927 1 16.6874 1.85669C17.2656 2.23925 17.7608 2.73439 18.1433 3.31255C19 4.60729 19 6.40486 19 10C19 13.5951 19 15.3927 18.1433 16.6874C17.7608 17.2656 17.2656 17.7608 16.6874 18.1433C15.3927 19 13.5951 19 10 19C6.40486 19 4.60729 19 3.31255 18.1433C2.73439 17.7608 2.23925 17.2656 1.85669 16.6874C1 15.3927 1 13.5951 1 10ZM14.6593 10.0002C14.6593 12.5735 12.5732 14.6596 9.99984 14.6596C7.42652 14.6596 5.34043 12.5735 5.34043 10.0002C5.34043 7.42691 7.42652 5.34082 9.99984 5.34082C12.5732 5.34082 14.6593 7.42691 14.6593 10.0002ZM9.99984 13.0832C11.7025 13.0832 13.0828 11.7029 13.0828 10.0002C13.0828 8.29753 11.7025 6.91722 9.99984 6.91722C8.29714 6.91722 6.91684 8.29753 6.91684 10.0002C6.91684 11.7029 8.29714 13.0832 9.99984 13.0832ZM14.8433 6.20155C15.4479 6.20155 15.9381 5.71138 15.9381 5.10673C15.9381 4.50207 15.4479 4.0119 14.8433 4.0119C14.2386 4.0119 13.7485 4.50207 13.7485 5.10673C13.7485 5.71138 14.2386 6.20155 14.8433 6.20155Z" fill="white"/>
</svg>
