<svg width="20" height="20" viewBox="0 0 20 20" fill="none" xmlns="http://www.w3.org/2000/svg">
<path d="M13.0271 3.00324V3H13.8711L14.1794 3.06159C14.385 3.10158 14.5717 3.15398 14.7394 3.21881C14.9071 3.28365 15.0694 3.35929 15.2263 3.44573C15.3832 3.53217 15.5255 3.62025 15.6532 3.70993C15.7798 3.79854 15.8934 3.89255 15.9941 3.99195C16.0936 4.09245 16.2489 4.11838 16.4599 4.06975C16.6709 4.02113 16.8981 3.95359 17.1416 3.86715C17.385 3.78071 17.6258 3.68346 17.8638 3.5754C18.1019 3.46734 18.2469 3.39873 18.2988 3.36955C18.3497 3.33931 18.3768 3.3231 18.38 3.32093L18.3832 3.31606L18.3995 3.30796L18.4157 3.29986L18.4319 3.29175L18.4482 3.28365L18.4514 3.27878L18.4563 3.27554L18.4612 3.2723L18.4644 3.26744L18.4806 3.26258L18.4968 3.25933L18.4936 3.28365L18.4887 3.30796L18.4806 3.33227L18.4725 3.35658L18.4644 3.37279L18.4563 3.389L18.4482 3.41331C18.4427 3.42952 18.4373 3.45113 18.4319 3.47815C18.4265 3.50517 18.3751 3.61321 18.2777 3.80232C18.1803 3.99142 18.0586 4.18321 17.9125 4.37771C17.7665 4.57222 17.6355 4.71916 17.5198 4.81858C17.4029 4.91908 17.3255 4.98931 17.2876 5.02929C17.2498 5.07035 17.2038 5.10816 17.1497 5.14275L17.0685 5.19624L17.0523 5.20434L17.0361 5.21245L17.0328 5.21731L17.028 5.22055L17.0231 5.22379L17.0198 5.22866L17.0036 5.23676L16.9874 5.24486L16.9841 5.24973L16.9793 5.25297L16.9744 5.25621L16.9711 5.26107L16.9679 5.26594L16.963 5.26918L16.9582 5.27242L16.9549 5.27728H17.0361L17.4905 5.18003C17.7935 5.1152 18.083 5.03686 18.3589 4.94501L18.7971 4.79913L18.8458 4.78292L18.8702 4.77482L18.8864 4.76672L18.9026 4.75861L18.9188 4.75051L18.9351 4.7424L18.9675 4.73754L19 4.7343V4.76672L18.9919 4.76996L18.9838 4.77482L18.9805 4.77968L18.9757 4.78292L18.9708 4.78617L18.9675 4.79103L18.9643 4.79589L18.9594 4.79913L18.9546 4.80237L18.9513 4.80724L18.9481 4.8121L18.9432 4.81534L18.9351 4.83155L18.927 4.84776L18.9221 4.851C18.9199 4.85424 18.8512 4.94608 18.716 5.12654C18.5807 5.30808 18.5077 5.39991 18.4968 5.40209C18.486 5.40533 18.4709 5.42154 18.4514 5.45071C18.433 5.48096 18.3183 5.60145 18.1073 5.81216C17.8963 6.02287 17.6897 6.21033 17.4873 6.37459C17.2839 6.53992 17.1811 6.74306 17.1789 6.98403C17.1757 7.22391 17.1632 7.49514 17.1416 7.79769C17.1199 8.10025 17.0794 8.42711 17.0198 8.7783C16.9603 9.12949 16.8684 9.52659 16.7439 9.96962C16.6195 10.4126 16.468 10.8449 16.2894 11.2663C16.1109 11.6877 15.9243 12.0659 15.7295 12.4009C15.5347 12.7359 15.3562 13.0195 15.1939 13.2518C15.0316 13.4841 14.8666 13.7029 14.6988 13.9083C14.5311 14.1136 14.319 14.3448 14.0626 14.602C13.8051 14.8581 13.6644 14.9985 13.6406 15.0234C13.6157 15.0472 13.5097 15.1358 13.3225 15.2892C13.1363 15.4437 12.9362 15.5982 12.7219 15.7528C12.5088 15.9062 12.3129 16.0343 12.1344 16.1369C11.9558 16.2396 11.7405 16.3568 11.4884 16.4886C11.2373 16.6215 10.9657 16.7447 10.6736 16.8582C10.3814 16.9716 10.073 17.077 9.74842 17.1743C9.42381 17.2715 9.11001 17.3471 8.80703 17.4012C8.50407 17.4552 8.16051 17.5011 7.77637 17.5389L7.20018 17.5957V17.6038H6.14518V17.5957L6.00721 17.5876C5.91525 17.5822 5.8395 17.5768 5.77998 17.5714C5.72048 17.566 5.49594 17.5362 5.1064 17.4822C4.71686 17.4282 4.41119 17.3742 4.18936 17.3201C3.96755 17.2661 3.63751 17.1634 3.19928 17.0122C2.76105 16.8609 2.38611 16.708 2.07448 16.5535C1.76394 16.4 1.56917 16.3028 1.49017 16.2617C1.41226 16.2217 1.32462 16.172 1.22723 16.1126L1.08115 16.0235L1.07792 16.0186L1.07304 16.0154L1.06817 16.0121L1.06492 16.0072L1.04869 15.9991L1.03246 15.991L1.02923 15.9862L1.02435 15.9829L1.01948 15.9797L1.01623 15.9748L1.013 15.97L1.00812 15.9667H1V15.9343L1.01623 15.9376L1.03246 15.9424L1.1055 15.9505C1.15419 15.9559 1.28675 15.964 1.50316 15.9748C1.71958 15.9856 1.9495 15.9856 2.19297 15.9748C2.43643 15.964 2.68531 15.9397 2.93959 15.9019C3.19387 15.8641 3.49414 15.7992 3.8404 15.7074C4.18667 15.6155 4.50479 15.5064 4.79479 15.38C5.08369 15.2525 5.28927 15.1574 5.41156 15.0947C5.53274 15.0331 5.71777 14.9186 5.96664 14.7511L6.33995 14.4999L6.34319 14.495L6.34806 14.4918L6.35295 14.4885L6.35618 14.4837L6.35942 14.4788L6.36429 14.4756L6.36918 14.4723L6.37241 14.4674L6.38864 14.4626L6.40487 14.4593L6.40812 14.4431L6.41298 14.4269L6.41787 14.4237L6.4211 14.4188L6.29125 14.4107C6.20469 14.4053 6.12083 14.3999 6.03968 14.3945C5.95852 14.3891 5.83139 14.3648 5.65825 14.3216C5.48513 14.2783 5.29848 14.2135 5.09829 14.1271C4.89811 14.0406 4.70334 13.938 4.51398 13.8191C4.32463 13.7003 4.18774 13.6014 4.10334 13.5225C4.02002 13.4447 3.91181 13.3345 3.77872 13.1918C3.64671 13.0481 3.53201 12.9006 3.43463 12.7494C3.33724 12.5981 3.24419 12.4236 3.15547 12.2258L3.02074 11.9308L3.01262 11.9065L3.00451 11.8822L2.99964 11.866L2.99639 11.8498L3.02074 11.853L3.04509 11.8579L3.22362 11.8822C3.34266 11.8984 3.52932 11.9038 3.78359 11.8984C4.03788 11.893 4.21371 11.8822 4.31109 11.866C4.40848 11.8498 4.46799 11.839 4.48963 11.8336L4.52209 11.8255L4.56267 11.8174L4.60325 11.8093L4.60649 11.8044L4.61136 11.8012L4.61625 11.7979L4.61948 11.7931L4.58702 11.785L4.55455 11.7769L4.52209 11.7687L4.48963 11.7606L4.45717 11.7525C4.43553 11.7471 4.39767 11.7363 4.34355 11.7201C4.28946 11.7039 4.14338 11.6445 3.90532 11.5418C3.66728 11.4392 3.47791 11.3392 3.33724 11.242C3.19622 11.1444 3.06176 11.0378 2.93472 10.9227C2.80812 10.806 2.66908 10.6558 2.51758 10.4721C2.3661 10.2884 2.23085 10.075 2.11181 9.83184C1.99279 9.58872 1.90352 9.3564 1.844 9.13488C1.78472 8.91467 1.74561 8.68952 1.72716 8.46223L1.69793 8.12186L1.71416 8.1251L1.73039 8.12996L1.74662 8.13807L1.76285 8.14617L1.77908 8.15427L1.79531 8.16238L2.04689 8.27584C2.21462 8.35148 2.42291 8.41632 2.67178 8.47034C2.92066 8.52436 3.06943 8.55409 3.11812 8.55948L3.19116 8.56759H3.33724L3.33401 8.56273L3.32913 8.55948L3.32426 8.55624L3.32101 8.55138L3.31778 8.54652L3.31289 8.54328L3.30803 8.54003L3.30478 8.53517L3.28855 8.52707L3.27232 8.51896L3.26909 8.5141L3.2642 8.51086L3.25933 8.50762L3.25609 8.50275L3.23986 8.49465L3.22362 8.48655L3.22039 8.48168C3.21715 8.47951 3.17061 8.44494 3.08079 8.37795C2.99206 8.30987 2.89901 8.22181 2.80162 8.11375C2.70424 8.00569 2.60685 7.89223 2.50947 7.77338C2.4119 7.65425 2.32501 7.52679 2.24977 7.39248C2.17404 7.25741 2.09396 7.08559 2.00956 6.87705C1.92625 6.66958 1.86294 6.4605 1.81966 6.24979C1.77639 6.03908 1.75204 5.83107 1.74662 5.62576C1.74121 5.42045 1.74662 5.24486 1.76285 5.09899C1.77908 4.95311 1.81154 4.78832 1.86023 4.60463C1.90893 4.42094 1.97927 4.22644 2.07124 4.02113L2.2092 3.71317L2.21731 3.68886L2.22543 3.66454L2.23031 3.6613L2.23354 3.65644L2.23679 3.65158L2.24166 3.64834L2.24654 3.65158L2.24977 3.65644L2.25302 3.6613L2.25789 3.66454L2.26278 3.66779L2.26601 3.67265L2.26925 3.67751L2.27412 3.68075L2.28224 3.69696L2.29035 3.71317L2.29524 3.71641L2.29847 3.72127L2.51758 3.9644C2.66366 4.12648 2.8368 4.30748 3.03697 4.50738C3.23716 4.70728 3.34807 4.81101 3.3697 4.81858C3.39135 4.82722 3.41839 4.85207 3.45086 4.89314C3.48332 4.93313 3.59153 5.02876 3.77547 5.18003C3.95943 5.3313 4.20019 5.50691 4.49775 5.7068C4.79532 5.9067 5.12534 6.10391 5.48783 6.29841C5.85033 6.49291 6.23987 6.6685 6.65645 6.82518C7.07304 6.98187 7.3652 7.08452 7.53291 7.13314C7.70064 7.18177 7.98738 7.2439 8.39315 7.31954C8.79892 7.39519 9.10461 7.44381 9.31019 7.46542C9.51579 7.48702 9.65646 7.49945 9.73219 7.5027L9.84581 7.50594L9.84258 7.48163L9.83769 7.45731L9.80523 7.25471C9.78359 7.11964 9.77277 6.93054 9.77277 6.68741C9.77277 6.44429 9.79171 6.22008 9.82958 6.01476C9.86746 5.80945 9.92427 5.60145 10 5.39074C10.0757 5.18003 10.1499 5.01091 10.2224 4.88342C10.296 4.75699 10.3923 4.61274 10.5113 4.45065C10.6303 4.28857 10.7845 4.12109 10.9739 3.94819C11.1632 3.7753 11.3796 3.62132 11.6231 3.48625C11.8665 3.35119 12.0911 3.24852 12.2967 3.17829C12.5023 3.10806 12.6754 3.06213 12.8161 3.04052C12.9567 3.01892 13.0271 3.00648 13.0271 3.00324Z" fill="white"/>
</svg>
