<svg width="24" height="24" viewBox="0 0 24 24" fill="none" xmlns="http://www.w3.org/2000/svg">
<rect width="24" height="24" rx="4" fill="#A4A4A4"/>
<path d="M12.2928 16.6533L9.5847 16.6027C8.70787 16.585 7.82885 16.6202 6.96921 16.4375C5.66151 16.1645 5.56886 14.8259 5.47192 13.7031C5.33835 12.1245 5.39006 10.5173 5.64213 8.95192C5.78443 8.07358 6.34446 7.54947 7.21051 7.49243C10.1341 7.28545 13.0771 7.30998 15.9942 7.40654C16.3023 7.4154 16.6125 7.46378 16.9162 7.51885C18.4158 7.78747 18.4523 9.3044 18.5495 10.5814C18.6465 11.8715 18.6056 13.1683 18.4203 14.4497C18.2716 15.5106 17.9872 16.4003 16.787 16.4862C15.2831 16.5985 13.8138 16.6889 12.3057 16.6601C12.3058 16.6533 12.2971 16.6533 12.2928 16.6533ZM10.7007 13.9673C11.834 13.3024 12.9456 12.6485 14.0724 11.988C12.937 11.3231 11.8275 10.6692 10.7007 10.0087V13.9673Z" fill="white"/>
</svg>
